<?xml version="1.0" encoding="UTF-8" standalone="no"?>
<svg
   xmlns:dc="http://purl.org/dc/elements/1.1/"
   xmlns:cc="http://creativecommons.org/ns#"
   xmlns:rdf="http://www.w3.org/1999/02/22-rdf-syntax-ns#"
   xmlns:svg="http://www.w3.org/2000/svg"
   xmlns="http://www.w3.org/2000/svg"
   xmlns:sodipodi="http://sodipodi.sourceforge.net/DTD/sodipodi-0.dtd"
   xmlns:inkscape="http://www.inkscape.org/namespaces/inkscape"
   width="317.79996"
   height="77.090698"
   viewBox="0 0 84.084568 20.396914"
   version="1.1"
   id="svg8"
   inkscape:version="1.0.1 (3bc2e813f5, 2020-09-07)"
   sodipodi:docname="logo.svg">
  <defs
     id="defs2">
    <rect
       x="107.95966"
       y="25.683294"
       width="105.7081"
       height="38.711082"
       id="rect841" />
  </defs>
  <sodipodi:namedview
     id="base"
     pagecolor="#ffffff"
     bordercolor="#666666"
     borderopacity="1.0"
     inkscape:pageopacity="0.0"
     inkscape:pageshadow="2"
     inkscape:zoom="1.5602349"
     inkscape:cx="85.758157"
     inkscape:cy="27.386167"
     inkscape:document-units="mm"
     inkscape:current-layer="layer1"
     inkscape:document-rotation="0"
     showgrid="false"
     units="px"
     showguides="true"
     inkscape:guide-bbox="true"
     inkscape:window-width="1920"
     inkscape:window-height="1016"
     inkscape:window-x="0"
     inkscape:window-y="0"
     inkscape:window-maximized="1">
    <sodipodi:guide
       position="34.709798,0.17739527"
       orientation="0,-1"
       id="guide849" />
    <sodipodi:guide
       position="16.615833,14.781077"
       orientation="0,-1"
       id="guide851" />
    <sodipodi:guide
       position="0.16665477,47.340278"
       orientation="1,0"
       id="guide853" />
    <sodipodi:guide
       position="80.716757,44.118273"
       orientation="1,0"
       id="guide855" />
    <sodipodi:guide
       position="114.63259,16.985606"
       orientation="0,-1"
       id="guide859" />
    <sodipodi:guide
       position="22.720683,20.37719"
       orientation="0,-1"
       id="guide861" />
  </sodipodi:namedview>
  <metadata
     id="metadata5">
    <rdf:RDF>
      <cc:Work
         rdf:about="">
        <dc:format>image/svg+xml</dc:format>
        <dc:type
           rdf:resource="http://purl.org/dc/dcmitype/StillImage" />
        <dc:title />
      </cc:Work>
    </rdf:RDF>
  </metadata>
  <g
     inkscape:label="Layer 1"
     inkscape:groupmode="layer"
     id="layer1"
     transform="translate(-26.626853,-16.259875)">
    <g
       aria-label="isaac r"
       id="text835"
       style="font-style:normal;font-weight:normal;font-size:27.7132px;line-height:1.25;font-family:sans-serif;letter-spacing:-0.79375px;fill:#000000;fill-opacity:1;stroke:none;stroke-width:0.692832">
      <path
         d="m 27.402822,36.379658 q -0.277132,0 -0.471124,-0.193993 -0.193993,-0.193992 -0.193993,-0.471124 v -13.08063 q 0,-0.277132 0.193993,-0.471125 0.193992,-0.193992 0.471124,-0.193992 h 2.300196 q 0.304845,0 0.471124,0.193992 0.193993,0.193993 0.193993,0.471125 v 13.08063 q 0,0.277132 -0.193993,0.471124 -0.166279,0.193993 -0.471124,0.193993 z M 27.291969,19.585459 q -0.277132,0 -0.471124,-0.193993 -0.193992,-0.193992 -0.193992,-0.471124 v -1.99535 q 0,-0.277132 0.193992,-0.471125 0.193992,-0.193992 0.471124,-0.193992 h 2.521902 q 0.304845,0 0.498837,0.193992 0.193993,0.193993 0.193993,0.471125 v 1.99535 q 0,0.277132 -0.193993,0.471124 -0.193992,0.193993 -0.498837,0.193993 z"
         style="font-style:normal;font-variant:normal;font-weight:500;font-stretch:normal;font-family:Rubik;-inkscape-font-specification:'Rubik Medium';stroke-width:0.692832"
         id="path854" />
      <path
         d="m 38.719739,36.65679 q -1.662792,0 -2.854459,-0.387985 -1.163955,-0.387985 -1.912211,-0.969962 -0.748257,-0.581977 -1.108528,-1.163954 -0.360272,-0.581978 -0.387985,-0.969962 -0.02771,-0.304846 0.166279,-0.471125 0.221706,-0.193992 0.471125,-0.193992 h 2.189342 q 0.110853,0 0.193993,0.02771 0.08314,0.02771 0.221705,0.166279 0.360272,0.304845 0.748257,0.637404 0.415698,0.332558 0.969962,0.581977 0.554264,0.221706 1.38566,0.221706 1.080814,0 1.801358,-0.415698 0.748256,-0.443412 0.748256,-1.247094 0,-0.581978 -0.332558,-0.942249 -0.304846,-0.360272 -1.163955,-0.637404 -0.859109,-0.304845 -2.438761,-0.637403 -1.551939,-0.360272 -2.577328,-0.914536 -1.025388,-0.554264 -1.524226,-1.38566 -0.498837,-0.831396 -0.498837,-1.939924 0,-1.080815 0.637403,-2.050777 0.665117,-0.997675 1.939924,-1.635078 1.302521,-0.637404 3.214731,-0.637404 1.496513,0 2.605041,0.387985 1.108528,0.360271 1.829071,0.914535 0.748257,0.554264 1.136241,1.136242 0.387985,0.554264 0.415698,0.969962 0.02771,0.304845 -0.166279,0.498837 -0.193992,0.166279 -0.443411,0.166279 H 41.93447 q -0.138566,0 -0.249419,-0.05543 -0.110852,-0.05543 -0.221705,-0.138566 -0.304845,-0.277132 -0.665117,-0.581977 -0.360272,-0.332559 -0.886822,-0.554264 -0.498838,-0.221706 -1.330234,-0.221706 -1.053101,0 -1.607365,0.471125 -0.554264,0.443411 -0.554264,1.136241 0,0.471124 0.249418,0.831396 0.277132,0.332558 1.080815,0.637403 0.803683,0.304845 2.438762,0.637404 1.856784,0.332558 2.937599,0.997675 1.108528,0.637404 1.551939,1.496513 0.471124,0.831396 0.471124,1.856784 0,1.247094 -0.748256,2.244769 -0.720543,0.997676 -2.16163,1.579653 -1.413373,0.554264 -3.519576,0.554264 z"
         style="font-style:normal;font-variant:normal;font-weight:500;font-stretch:normal;font-family:Rubik;-inkscape-font-specification:'Rubik Medium';stroke-width:0.692832"
         id="path856" />
      <path
         d="m 51.394593,36.65679 q -1.441086,0 -2.605041,-0.554264 -1.163954,-0.581977 -1.856784,-1.524226 -0.665117,-0.969962 -0.665117,-2.16163 0,-1.939924 1.579653,-3.076165 1.579652,-1.163954 4.129266,-1.551939 l 3.796709,-0.554264 v -0.581977 q 0,-1.163955 -0.581977,-1.801358 -0.581978,-0.637404 -1.995351,-0.637404 -0.997675,0 -1.635079,0.415698 -0.60969,0.387985 -0.914535,1.053102 -0.221706,0.360271 -0.637404,0.360271 H 47.81959 q -0.304845,0 -0.471124,-0.166279 -0.138566,-0.166279 -0.138566,-0.443411 0.02771,-0.443411 0.360272,-1.080815 0.360271,-0.637403 1.053101,-1.219381 0.720543,-0.60969 1.856785,-1.025388 1.136241,-0.415698 2.743606,-0.415698 1.745932,0 2.9376,0.443411 1.21938,0.415698 1.939923,1.136241 0.720544,0.720544 1.053102,1.690506 0.332558,0.969961 0.332558,2.050776 v 8.701945 q 0,0.277132 -0.193992,0.471124 -0.193992,0.193993 -0.471124,0.193993 h -2.244769 q -0.304846,0 -0.498838,-0.193993 -0.166279,-0.193992 -0.166279,-0.471124 v -1.080815 q -0.360272,0.498838 -0.969962,0.969962 -0.609691,0.471125 -1.496513,0.77597 -0.859109,0.277132 -2.050777,0.277132 z m 0.942249,-2.632754 q 0.969962,0 1.745932,-0.415698 0.803682,-0.415698 1.247094,-1.274807 0.471124,-0.886823 0.471124,-2.217056 v -0.581978 l -2.77132,0.443412 q -1.635079,0.249418 -2.438762,0.803682 -0.803682,0.554264 -0.803682,1.357947 0,0.609691 0.360271,1.053102 0.387985,0.415698 0.969962,0.637403 0.581977,0.193993 1.219381,0.193993 z"
         style="font-style:normal;font-variant:normal;font-weight:500;font-stretch:normal;font-family:Rubik;-inkscape-font-specification:'Rubik Medium';stroke-width:0.692832"
         id="path858" />
      <path
         d="m 66.425057,36.65679 q -1.441086,0 -2.60504,-0.554264 -1.163955,-0.581977 -1.856785,-1.524226 -0.665117,-0.969962 -0.665117,-2.16163 0,-1.939924 1.579653,-3.076165 1.579652,-1.163954 4.129267,-1.551939 l 3.796708,-0.554264 v -0.581977 q 0,-1.163955 -0.581977,-1.801358 -0.581977,-0.637404 -1.995351,-0.637404 -0.997675,0 -1.635078,0.415698 -0.609691,0.387985 -0.914536,1.053102 -0.221706,0.360271 -0.637404,0.360271 h -2.189342 q -0.304846,0 -0.471125,-0.166279 -0.138566,-0.166279 -0.138566,-0.443411 0.02771,-0.443411 0.360272,-1.080815 0.360271,-0.637403 1.053101,-1.219381 0.720544,-0.60969 1.856785,-1.025388 1.136241,-0.415698 2.743607,-0.415698 1.745931,0 2.937599,0.443411 1.21938,0.415698 1.939924,1.136241 0.720543,0.720544 1.053101,1.690506 0.332559,0.969961 0.332559,2.050776 v 8.701945 q 0,0.277132 -0.193993,0.471124 -0.193992,0.193993 -0.471124,0.193993 h -2.244769 q -0.304846,0 -0.498838,-0.193993 -0.166279,-0.193992 -0.166279,-0.471124 v -1.080815 q -0.360272,0.498838 -0.969962,0.969962 -0.60969,0.471125 -1.496513,0.77597 -0.859109,0.277132 -2.050777,0.277132 z m 0.942249,-2.632754 q 0.969962,0 1.745932,-0.415698 0.803682,-0.415698 1.247094,-1.274807 0.471124,-0.886823 0.471124,-2.217056 v -0.581978 l -2.77132,0.443412 q -1.635079,0.249418 -2.438761,0.803682 -0.803683,0.554264 -0.803683,1.357947 0,0.609691 0.360271,1.053102 0.387985,0.415698 0.969962,0.637403 0.581978,0.193993 1.219381,0.193993 z"
         style="font-style:normal;font-variant:normal;font-weight:500;font-stretch:normal;font-family:Rubik;-inkscape-font-specification:'Rubik Medium';stroke-width:0.692832"
         id="path860" />
      <path
         d="m 83.506294,36.65679 q -1.99535,0 -3.519576,-0.748257 -1.496513,-0.748256 -2.355622,-2.161629 -0.831396,-1.441087 -0.914535,-3.46415 -0.02771,-0.415698 -0.02771,-1.080815 0,-0.69283 0.02771,-1.136241 0.08314,-2.023064 0.914535,-3.436437 0.859109,-1.441086 2.355622,-2.189343 1.524226,-0.748256 3.519576,-0.748256 1.773645,0 3.020739,0.498838 1.247094,0.471124 2.050777,1.247094 0.803683,0.748256 1.191668,1.579652 0.415698,0.803683 0.443411,1.468799 0.02771,0.304846 -0.193993,0.498838 -0.193992,0.166279 -0.471124,0.166279 H 87.10901 q -0.277132,0 -0.443411,-0.138566 -0.138566,-0.138566 -0.277132,-0.415698 -0.415698,-1.108528 -1.108528,-1.551939 -0.665117,-0.471124 -1.718218,-0.471124 -1.38566,0 -2.217056,0.886822 -0.803683,0.859109 -0.859109,2.743607 -0.05543,1.053101 0,1.939924 0.05543,1.912211 0.859109,2.77132 0.831396,0.859109 2.217056,0.859109 1.080815,0 1.745931,-0.443411 0.665117,-0.471125 1.080815,-1.579653 0.138566,-0.277132 0.277132,-0.415698 0.166279,-0.138566 0.443411,-0.138566 h 2.438762 q 0.277132,0 0.471124,0.193993 0.221706,0.166279 0.193993,0.471124 -0.02771,0.498838 -0.277132,1.136241 -0.221706,0.609691 -0.748257,1.274808 -0.498837,0.637403 -1.274807,1.191667 -0.775969,0.526551 -1.884497,0.859109 -1.080815,0.332559 -2.521902,0.332559 z"
         style="font-style:normal;font-variant:normal;font-weight:500;font-stretch:normal;font-family:Rubik;-inkscape-font-specification:'Rubik Medium';stroke-width:0.692832"
         id="path862" />
      <path
         d="m 98.518926,36.379658 q -0.277132,0 -0.471124,-0.193993 -0.193993,-0.193992 -0.193993,-0.471124 V 22.661624 q 0,-0.304845 0.193993,-0.498838 0.193992,-0.193992 0.471124,-0.193992 h 2.244774 q 0.27713,0 0.47112,0.193992 0.22171,0.193993 0.22171,0.498838 v 1.136241 q 0.6374,-0.886822 1.63507,-1.357947 1.02539,-0.471124 2.35563,-0.471124 h 1.13624 q 0.30484,0 0.47112,0.193992 0.19399,0.193993 0.19399,0.471125 v 1.99535 q 0,0.277132 -0.19399,0.471125 -0.16628,0.193992 -0.47112,0.193992 h -2.16163 q -1.33024,0 -2.07849,0.748256 -0.72055,0.720543 -0.72055,2.050777 v 7.62113 q 0,0.277132 -0.19399,0.471124 -0.19399,0.193993 -0.49884,0.193993 z"
         style="font-style:normal;font-variant:normal;font-weight:500;font-stretch:normal;font-family:Rubik;-inkscape-font-specification:'Rubik Medium';stroke-width:0.692832"
         id="path864" />
    </g>
    <g
       id="text839"
       style="font-style:normal;font-weight:normal;font-size:10.5833px;line-height:1.25;font-family:sans-serif;white-space:pre;shape-inside:url(#rect841);fill:#000000;fill-opacity:1;stroke:none" />
    <g
       aria-label="©"
       id="text847"
       style="font-style:normal;font-weight:normal;font-size:4.30465px;line-height:1.25;font-family:sans-serif;fill:#000000;fill-opacity:1;stroke:none;stroke-width:0.107616">
      <path
         d="m 109.47168,18.160087 c -0.0301,0.202319 -0.15496,0.292716 -0.33145,0.292716 -0.24106,0 -0.40464,-0.189404 -0.40464,-0.559604 0,-0.335763 0.14636,-0.542386 0.39172,-0.542386 0.1851,0 0.31424,0.07748 0.34437,0.275498 h 0.36159 c -0.0172,-0.430465 -0.30993,-0.654307 -0.70165,-0.654307 -0.49934,0 -0.80067,0.396028 -0.80067,0.929804 0,0.563909 0.35298,0.929804 0.76623,0.929804 0.45199,0 0.72749,-0.301325 0.73609,-0.671525 z m -1.9457,-0.245365 c 0,0.878149 0.71457,1.59272 1.59272,1.59272 0.87815,0 1.59272,-0.714571 1.59272,-1.59272 0,-0.878149 -0.71457,-1.59272 -1.59272,-1.59272 -0.87815,0 -1.59272,0.714571 -1.59272,1.59272 z m 0.48212,0 c 0,-0.671525 0.43908,-1.162255 1.1106,-1.162255 0.67153,0 1.1106,0.49073 1.1106,1.162255 0,0.671525 -0.43907,1.162256 -1.1106,1.162256 -0.67152,0 -1.1106,-0.490731 -1.1106,-1.162256 z"
         style="font-style:normal;font-variant:normal;font-weight:normal;font-stretch:normal;font-family:'Eurostile LT Std';-inkscape-font-specification:'Eurostile LT Std';fill:#000000;fill-opacity:0.846668;stroke-width:0.107616"
         id="path850" />
    </g>
  </g>
</svg>
