<?xml version="1.0" encoding="UTF-8" standalone="no"?>
<svg
   xmlns:dc="http://purl.org/dc/elements/1.1/"
   xmlns:cc="http://creativecommons.org/ns#"
   xmlns:rdf="http://www.w3.org/1999/02/22-rdf-syntax-ns#"
   xmlns:svg="http://www.w3.org/2000/svg"
   xmlns="http://www.w3.org/2000/svg"
   xmlns:sodipodi="http://sodipodi.sourceforge.net/DTD/sodipodi-0.dtd"
   xmlns:inkscape="http://www.inkscape.org/namespaces/inkscape"
   width="1300"
   height="200"
   viewBox="0 0 343.95833 52.916669"
   version="1.1"
   id="svg847"
   inkscape:version="1.0.1 (3bc2e813f5, 2020-09-07)"
   sodipodi:docname="nav_background.svg">
  <defs
     id="defs841" />
  <sodipodi:namedview
     id="base"
     pagecolor="#ffffff"
     bordercolor="#666666"
     borderopacity="1.0"
     inkscape:pageopacity="0.0"
     inkscape:pageshadow="2"
     inkscape:zoom="0.76594295"
     inkscape:cx="573.88368"
     inkscape:cy="191.50594"
     inkscape:document-units="mm"
     inkscape:current-layer="layer1"
     inkscape:document-rotation="0"
     showgrid="false"
     units="px"
     inkscape:window-width="1920"
     inkscape:window-height="1016"
     inkscape:window-x="0"
     inkscape:window-y="0"
     inkscape:window-maximized="1" />
  <metadata
     id="metadata844">
    <rdf:RDF>
      <cc:Work
         rdf:about="">
        <dc:format>image/svg+xml</dc:format>
        <dc:type
           rdf:resource="http://purl.org/dc/dcmitype/StillImage" />
        <dc:title></dc:title>
      </cc:Work>
    </rdf:RDF>
  </metadata>
  <g
     inkscape:label="Layer 1"
     inkscape:groupmode="layer"
     id="layer1">
    <path
       d="m 290.84469,51.885139 c 3.08808,-0.88017 4.62355,-1.668549 4.78195,-2.494557 0.047,-0.269229 0.1284,-0.592926 0.1606,-0.736697 0.0327,-0.12588 -0.0909,-1.516872 -0.29074,-3.102566 -0.42151,-3.331686 -0.32253,-5.121307 0.40685,-6.711969 0.49206,-1.066546 1.08923,-1.492279 2.14302,-1.518213 0.58941,-0.0145 0.80639,0.0874 1.35671,0.663644 0.67887,0.716054 1.34002,2.165285 1.66181,3.622878 0.10117,0.480051 0.2117,2.067934 0.24771,3.532538 l 0.0654,2.661314 1.18043,-0.690293 c 3.15367,-1.846873 5.22439,-3.399026 5.61543,-4.212878 0.85089,-1.736627 -0.54637,-6.9566 -3.1093,-11.611769 -0.71166,-1.322897 -1.2961,-2.559554 -1.26521,-2.756905 0.0596,-0.484005 1.22393,-1.102417 1.83472,-0.974456 0.59337,0.146255 1.00345,0.833185 2.01377,3.399769 0.8765,2.212431 1.35262,4.130892 1.60398,6.358698 0.2789,2.620303 0.35825,2.940051 0.66188,2.93258 0.73187,-0.03588 1.89137,-0.850744 3.72462,-2.611535 2.40906,-2.32897 2.95645,-3.325391 2.90726,-5.325833 -0.0176,-0.714451 -0.20555,-1.817883 -0.42002,-2.545349 -0.58283,-1.897972 -3.07358,-7.251915 -4.47113,-9.57664 -0.65281,-1.109884 -1.25336,-2.274655 -1.31441,-2.576979 -0.20496,-1.067272 0.83874,-1.503993 1.99942,-0.817655 1.68612,0.977236 4.7695,4.994082 6.62779,8.612126 l 1.16448,2.294712 0.69644,-0.74987 c 1.25306,-1.371203 2.7998,-4.608307 3.11003,-6.528232 0.2032,-1.184541 -0.0959,-2.446088 -0.81576,-3.375601 -1.29244,-1.68392 -7.07051,-6.992769 -10.22153,-9.3994768 -0.65573,-0.502174 -2.27347,-1.606197 -3.59886,-2.449329 -1.32582,-0.860997 -2.72572,-1.827396 -3.09128,-2.157977 l -0.67624,-0.60888 0.42033,-0.349905 c 0.50742,-0.4414049 1.04501,-0.3831274 2.6348,0.310521 1.20987,0.506417 7.49771,4.015532 8.67932,4.826465 1.25439,0.862741 3.72668,3.2861448 5.12848,5.0567348 l 1.36433,1.700038 0.24727,-0.84606 c 0.46277,-1.530492 1.06244,-4.7621948 1.13359,-6.2294358 0.14495,-2.827332 -0.66818,-3.915392 -3.80851,-5.1606906 -3.3207,-1.31235586 -12.51873,-5.4290444 -13.13743,-5.8785029 -0.74592,-0.5356852 -0.79657,-1.1420916 -0.16939,-1.8008983 0.40071,-0.4209067 0.54272,-0.460142 1.47369,-0.3936762 1.37838,0.09121 5.67925,1.2901003 7.54003,2.1021924 0.83084,0.3548764 2.49601,1.2075335 3.71028,1.8925506 1.21426,0.6850169 2.28343,1.2842441 2.37361,1.3177673 0.27055,0.10058004 -0.14335,-4.3750927 -0.56189,-6.1341169 -0.65836,-2.7896994 -1.7356,-4.4431656 -3.58466,-5.5057656 -1.39551,-0.787791 -2.32604,-0.836397 -4.52676,-0.210379 -3.1238,0.88105 -7.15382,1.248232 -8.38067,0.777982 -0.75807,-0.303053 -1.22129,-0.97079 -1.27813,-1.827226 -0.0336,-0.642563 8.7e-4,-0.67916 1.13068,-1.260967 2.39968,-1.256429 5.23081,-1.683478 8.15447,-1.254954 0.93273,0.13791 1.72126,0.225748 1.75565,0.171287 0.1568,-0.164703 -3.46051,-3.364185 -4.42119,-3.912464 -1.84908,-1.062585 -3.50665,-0.878852 -6.68431,0.718397 -3.42509,1.710567 -7.38836,4.792635 -10.22372,7.954189 l -1.3393,1.498427 0.57171,-1.461681 c 1.68202,-4.277004 2.4171,-7.815842 2.3319,-11.280892 -0.0522,-2.125473 -0.53964,-5.955947 -0.80025,-6.378467 -0.074,-0.105413 -1.2062,0.369227 -1.82256,0.741818 -0.0175,0.0183 0.11947,0.497474 0.32999,1.064205 0.82161,2.160168 1.08147,5.460081 0.68385,8.186384 -0.3089,1.973506 -1.33284,5.39435 -2.29866,7.544852 l -0.72851,1.6263878 -0.16045,-0.7109318 c -0.4269,-2.09839 -1.55816,-5.948777 -2.15008,-7.489072 -1.33195,-3.291427 -2.46057,-4.854273 -4.19588,-5.651581 -1.68173,-0.798622 -3.5728,-0.662761 -5.79828,0.41066 l -1.02452,0.489861 1.29611,0.379186 c 2.15958,0.608155 3.59784,1.680843 4.49602,3.320844 0.43057,0.793648 0.38534,1.134326 -0.20131,1.988732 -0.39675,0.581662 -0.64241,0.76642 -1.0175,0.775645 -0.80374,0.01976 -2.05856,-0.860844 -3.47427,-2.47025 -0.73509,-0.821905 -1.59432,-1.605006 -1.93808,-1.775275 -0.88529,-0.389284 -2.40875,-0.566285 -4.4092,-0.517095 -1.46461,0.03601 -1.82052,0.09838 -2.61417,0.528954 -1.16433,0.618401 -2.25884,1.896348 -3.12671,3.669135 -0.64666,1.320546 -1.49345,3.950674 -1.32875,4.10747 0.0366,0.03483 0.49922,-0.04804 1.03155,-0.204083 3.47837,-0.997001 7.1831,-0.784285 10.03985,0.557352 1.03082,0.492938 1.98155,1.363157 1.99297,1.827548 0.0268,1.0895228 -4.93127,0.7825141 -12.9761,-0.771108 -2.58605,-0.508313 -3.06962,-0.550037 -4.92585,-0.45078 -2.40906,0.148602 -3.15175,0.470685 -4.13954,1.728143 -1.09143,1.4029737 -2.41637,4.9384444 -2.69951,7.2330149 l -0.10571,0.7889615 1.47018,-0.5365709 c 2.2669,-0.8421006 4.09869,-1.208841 6.8471,-1.3657855 3.05117,-0.2001274 4.07233,-0.1001349 4.65794,0.4573625 0.58561,0.5575027 0.60626,1.3969803 0.0439,1.7861091 -1.26492,0.88896344 -4.23104,1.64103274 -8.45358,2.17378974 -3.54559,0.4446208 -5.25147,0.84400906 -6.62751,1.57485366 -1.49975,0.7874972 -1.87381,1.5651872 -1.82067,3.7263782 0.0211,0.857337 0.13895,2.016109 0.24275,2.603337 0.3458,1.707196 1.0538,4.3348258 1.16097,4.3321918 0.0536,-0.0013 1.0519,-0.830101 2.20658,-1.841445 2.2218,-1.9490638 2.96274,-2.3425968 4.07497,-2.1733498 0.71795,0.125321 1.70266,0.923214 1.71452,1.405465 0.025,1.0180848 -1.65538,2.4534168 -3.72801,3.2013878 -1.52331,0.55574 -2.614,1.261696 -3.69416,2.396312 -1.41205,1.446596 -1.76562,2.331024 -1.70208,4.18813 0.0495,1.285564 0.189,1.871909 0.87944,3.785097 0.44155,1.240184 0.85953,2.248595 0.93097,2.24684 0.0536,-0.0013 0.39631,-0.599517 0.73596,-1.322746 0.83436,-1.682608 1.84088,-2.904773 3.15893,-3.812906 1.35336,-0.926859 2.10308,-0.963179 2.92703,-0.161336 0.34813,0.34889 0.5904,0.753996 0.59747,1.039753 0.0197,0.80375 -1.34749,1.891809 -3.2437,2.546086 -1.06332,0.365708 -1.39565,0.659829 -1.90733,1.65537 -0.98938,1.918748 -0.72645,3.163317 1.23755,5.992402 0.62985,0.895853 1.28203,1.988001 1.47164,2.430139 l 0.32383,0.814136 0.34274,-0.598192 c 2.8276,-4.930688 4.7954,-7.034355 6.67038,-7.098325 0.58942,-0.01449 1.15454,0.436277 1.16639,0.918527 0.0136,0.553696 -1.27824,1.800749 -3.22832,3.171231 -3.286,2.279049 -5.33915,4.545648 -5.3071,5.849512 0.0202,0.821601 0.66306,2.253419 1.6261,3.623747 1.11161,1.599021 1.31159,1.737082 1.528,1.088353 0.56731,-1.640291 1.20534,-2.58531 3.01721,-4.488546 5.0175,-5.270489 8.43249,-7.391865 10.52547,-6.585473 0.84825,0.336567 0.85704,0.693799 0.0195,1.518632 -0.66248,0.677546 -3.98289,3.011063 -6.95662,4.907127 -1.28453,0.817939 -1.93219,1.370042 -2.64256,2.281084 -1.19552,1.530645 -2.14654,3.55568 -2.12283,4.520181 0.025,1.018082 0.53832,1.541622 2.47581,2.56629 0.86875,0.443306 1.90352,1.09699 2.30525,1.444557 0.73026,0.625431 1.43622,1.716128 1.44895,2.234097 0.006,0.232199 0.0955,0.247857 0.39645,0.133237 0.7083,-0.267626 2.318,-0.217855 4.20395,0.164693 1.05952,0.206287 2.43877,0.333217 3.27824,0.31258 1.32173,-0.03251 1.4816,-0.0722 1.84658,-0.492204 0.69512,-0.803459 0.8648,-1.89782 0.76788,-5.112385 -0.0578,-1.624915 -0.25737,-3.925485 -0.44755,-5.118232 -0.4859,-3.044143 -0.48179,-4.331018 -0.0323,-4.949722 0.41549,-0.546374 1.03888,-0.633188 1.4611,-0.178899 0.55033,0.576242 1.27164,2.292068 1.74818,4.228391 1.04767,4.084778 0.65164,8.330167 -1.15234,12.735268 -0.11843,0.270998 3.63328,0.214488 4.62691,-0.07801 0.60288,-0.193546 0.68956,-0.302909 0.91897,-1.148535 0.14802,-0.521916 0.32809,-1.920357 0.4054,-3.137546 0.17158,-2.470545 -0.0667,-4.895268 -0.75471,-7.434028 -0.50963,-1.828282 -0.51066,-2.596742 -0.0608,-3.197578 1.02088,-1.365496 2.2079,0.392502 3.30402,4.994366 0.93697,3.944538 1.08689,6.407168 0.50933,9.084288 -0.14538,0.629091 -0.22152,1.167123 -0.20321,1.184541 0.0366,0.03487 0.76496,-0.143913 1.6523,-0.398065 z m 3.81058,-17.286485 c -0.99085,-1.047944 -2.84401,-5.184397 -2.87521,-6.452546 -0.0387,-1.571773 1.49507,-2.431599 3.10316,-1.720514 1.21075,0.542115 2.3786,2.246976 2.96583,4.323544 0.52837,1.863565 0.0655,3.394053 -1.25688,4.123571 -0.88119,0.504216 -1.22187,0.458986 -1.93689,-0.274064 z m -9.94176,-0.202321 c -0.73245,-0.714742 -2.14626,-3.700332 -2.31813,-4.87565 -0.10775,-0.747973 -0.059,-0.945765 0.25459,-1.275165 0.19165,-0.201312 0.56241,-0.389024 0.79453,-0.394852 2.01831,-0.04963 4.51812,4.946659 3.28995,6.603203 -0.50171,0.673585 -1.27063,0.656764 -2.02094,-0.05754 z m 18.1911,-8.096502 c -0.74328,-0.428521 -1.3324,-1.12891 -4.01143,-4.691031 -1.16431,-1.561988 -2.27725,-3.214585 -2.46691,-3.656678 -0.30423,-0.743135 -0.3073,-0.868167 -0.0856,-1.30254 0.30701,-0.597326 1.10109,-1.010038 1.67616,-0.881198 0.62909,0.145378 1.52493,0.963329 2.9973,2.696442 2.11815,2.557211 3.52406,5.2213 3.56315,6.810938 0.0316,1.286005 -0.58474,1.658592 -1.67265,1.024087 z m -36.38615,0.769633 c -0.93112,-0.799214 0.0959,-1.914651 4.38505,-4.826015 4.39502,-2.967578 4.96129,-3.195964 5.94644,-2.380212 0.38298,0.312278 0.51416,0.559263 0.5269,1.07723 0.0145,0.589418 -0.1057,0.788961 -0.89101,1.55889 -1.13462,1.100219 -3.32861,2.726895 -4.59879,3.401518 -2.38096,1.291716 -4.65619,1.794457 -5.36859,1.168589 z m 23.07758,-1.979365 c -0.50891,-0.34492 -2.57315,-3.618349 -2.84607,-4.540963 -0.17524,-0.585465 -0.16177,-0.764514 0.11478,-1.146623 0.75998,-1.073132 2.21112,-0.9301 3.67294,0.374354 1.46139,1.286585 2.27685,3.196695 1.87542,4.31462 -0.35005,1.027314 -1.94481,1.584809 -2.81707,0.998612 z M 260.0687,19.882711 c -0.98514,-0.815757 0.66555,-2.732897 3.04093,-3.524064 1.25847,-0.424125 1.88449,-0.403774 2.36075,0.06705 0.45749,0.435545 0.35781,0.741819 -0.54814,1.693432 -0.90594,0.951618 -2.22664,1.752589 -3.31046,2.011578 -0.74577,0.197056 -1.06904,0.133519 -1.54308,-0.248005 z m 48.10069,-4.060179 c -2.78238,-1.951109 -5.66445,-5.776312 -5.35803,-7.1242328 0.22502,-1.024235 1.25935,-0.388415 4.22883,2.6304128 1.20958,1.221288 2.32898,2.409053 2.49587,2.655153 0.57344,0.790148 0.36073,2.314478 -0.33585,2.331609 -0.17861,0.0044 -0.64871,-0.216383 -1.03082,-0.492942 z m -41.5032,0.538021 c -0.81004,-0.963033 -0.36191,-1.635314 2.01596,-3.052048 2.83566,-1.696073 6.17248,-2.635973 7.27605,-2.091218 0.39822,0.204673 0.53818,0.808877 0.27949,1.190552 -0.32706,0.508452 -1.6299,1.308978 -4.1019,2.531438 -4.30893,2.107614 -4.7881,2.244502 -5.4696,1.421276 z M 261.3869,8.8054542 c -0.85968,-0.800967 -0.12751,-1.551714 3.156,-3.205188 4.7127,-2.403489 9.63958,-3.3646132 10.10206,-1.999847 0.26939,0.77973 -0.84004,1.450399 -4.22517,2.605959 -0.69131,0.231459 -2.00074,0.764076 -2.91985,1.179857 -3.48174,1.586849 -5.47209,2.046853 -6.11304,1.419219 z m 35.849,-2.99041 c -2.79936,-1.914941 -4.51154,-4.6787301 -2.64257,-4.2600197 0.48533,0.113174 3.45027,2.2206357 4.60187,3.2646337 0.60303,0.539199 0.78955,0.856305 0.79968,1.267094 0.0299,1.214555 -0.68721,1.124958 -2.75895,-0.271728 z m -19.05587,-0.907571 c -0.36029,-0.116245 -0.5982,-0.342727 -0.67667,-0.626749 -0.29296,-1.011493 1.55963,-1.986392 3.56402,-1.874827 1.34223,0.07423 2.04802,0.432181 2.0634,1.057322 0.025,1.018074 -3.27561,1.974962 -4.95075,1.444254 z m -8.50818,-7.3148521 c -0.59601,-0.2534308 -0.81048,-0.9809025 -0.40758,-1.3125056 0.89467,-0.683249 5.67618,-1.0153015 6.8512,-0.4722954 0.83171,0.3906081 0.96816,0.85192 0.31344,1.1182264 -0.54842,0.2279484 -4.0025,0.7596833 -5.35906,0.8287887 -0.51797,0.012733 -1.14487,-0.043345 -1.398,-0.1622141 z m 29.57711,-2.9434213 c -0.94019,-0.4415509 -1.14589,-0.8118035 -0.7465,-1.2862926 0.72996,-0.8400552 3.99473,-0.3484343 4.41272,0.6599844 0.11421,0.2831279 0.065,0.4630667 -0.21463,0.7201505 -0.3149,0.275841 -0.59982,0.3185711 -1.56563,0.2887062 -0.66218,-0.03733 -1.50649,-0.2131621 -1.88596,-0.3825485 z m -14.38638,-1.4334287 c -0.84782,-0.3187171 -1.14766,-0.8832434 -0.65632,-1.2527685 0.98222,-0.7568992 3.86677,0.2623578 3.55157,1.2530649 -0.11712,0.3245699 -2.02958,0.3179792 -2.89525,-2.964e-4 z"
       id="path6-7"
       style="fill:#8a7090;fill-opacity:1;stroke:none;stroke-width:0.0178665"
       inkscape:transform-center-x="-4.1541325"
       inkscape:transform-center-y="-3.1366788" />
    <path
       d="m 288.73084,14.629965 c 2.58994,-0.549976 3.45582,-0.760097 6.36477,-1.544671 l 1.54137,-0.419824 -0.30055,0.529709 -0.31044,0.535003 -0.96989,0.253179 c -0.78091,0.202686 -1.20678,0.380206 -2.04964,0.870275 -0.5915,0.342622 -1.85954,1.035199 -2.81698,1.548584 -0.96731,0.51868 -1.74709,0.936799 -1.71677,0.945948 0.0151,0.0046 0.76575,-0.20727 1.68027,-0.468889 1.83893,-0.528533 3.57057,-1.304547 4.78422,-2.145945 0.39797,-0.276941 0.72755,-0.491793 0.73814,-0.472069 0.005,0.01013 -0.0556,0.156927 -0.14621,0.319861 -0.12861,0.234168 -0.51142,0.515688 -1.58059,1.152504 -1.53695,0.925795 -1.51263,0.900041 -2.709,2.698025 -0.30727,0.469765 -0.59982,0.753714 -1.07676,1.072997 -0.83086,0.559863 -0.44161,0.503671 0.70867,-0.100411 1.02197,-0.535281 1.79674,-1.128627 2.65249,-2.044992 0.38452,-0.396809 0.70596,-0.721674 0.72112,-0.717096 0.0151,0.0046 -0.10029,0.523986 -0.25236,1.164712 -0.24005,1.06915 -0.84826,5.741587 -0.75198,5.778922 0.0811,0.03276 1.56245,-3.366791 1.89035,-4.343253 0.32403,-0.936257 0.46667,-2.258175 0.39145,-3.488698 -0.0436,-0.650162 0.14894,-1.452384 0.37597,-1.574118 0.0593,-0.03176 0.0709,0.203429 0.0302,0.530283 -0.1149,1.065583 -0.031,2.075374 0.27343,3.259271 0.30969,1.193752 0.88085,2.946275 1.0661,3.291746 0.13159,0.221732 -0.20177,-3.907708 -0.40673,-5.119485 -0.0781,-0.453765 -0.23458,-1.195911 -0.36805,-1.658107 l -0.22457,-0.845429 0.53002,-0.741706 c 0.29884,-0.414411 0.55048,-0.72726 0.56636,-0.697644 0.0155,0.02982 0.0219,0.941412 0.008,2.029168 -0.014,1.087753 0.0164,2.329568 0.0688,2.759003 0.10784,0.793648 1.29019,5.700587 1.39104,5.722758 0.0455,0.01373 -0.13941,-3.127795 -0.35908,-5.907557 -0.0475,-0.609961 -0.21797,-2.018154 -0.39046,-3.145677 -0.29837,-2.025882 -0.28334,-2.377071 0.13051,-2.624401 0.0691,-0.03706 0.16279,0.611687 0.22126,1.431796 0.15632,2.140179 0.27676,2.672899 1.00599,4.696507 0.71864,2.003858 0.9073,2.995632 1.03344,5.482413 0.0373,0.780629 0.0862,1.440666 0.10209,1.470275 0.0156,0.02986 0.0894,-0.378366 0.16467,-0.901644 0.16526,-1.23237 0.13724,-2.564456 -0.0999,-4.025858 -0.0983,-0.633574 -0.18966,-1.728341 -0.20437,-2.419416 -0.0257,-1.778113 -0.5202,-4.003845 -1.29593,-5.900849 l -0.27492,-0.678634 0.37251,-0.4666198 c 0.21286,-0.266646 0.41271,-0.462759 0.4529,-0.458901 0.0356,0.01901 0.27478,1.1997718 0.51121,2.6361368 0.50004,2.947135 0.84077,4.175086 1.70962,6.174661 0.33243,0.762176 0.89143,2.089122 1.24648,2.94085 0.71464,1.688293 0.74712,1.772543 0.77458,1.681571 0.009,-0.0304 -0.24902,-1.175453 -0.58344,-2.533862 -0.33443,-1.358411 -0.73208,-3.000637 -0.88113,-3.657812 -0.43369,-1.851653 -1.05649,-4.008574 -1.72291,-5.938767 -0.33358,-0.9776078 -0.58391,-1.8473568 -0.54657,-1.9436288 0.0595,-0.197124 1.31452,-1.696118 1.39034,-1.673235 0.0303,0.0092 0.14189,1.283737 0.25143,2.838983 0.10425,1.5453718 0.29147,3.3639708 0.4109,4.0370298 0.18552,1.057003 2.35186,8.486357 2.48304,8.517692 0.0758,0.02289 -0.83771,-6.349881 -1.35193,-9.44192 -0.25445,-1.541088 -0.66038,-3.6490798 -0.91042,-4.6841948 -0.40437,-1.702166 -0.43053,-1.916887 -0.24585,-2.117582 0.11172,-0.123452 0.43173,-0.498376 0.72284,-0.832394 l 0.52901,-0.601372 0.045,0.700232 c 0.016,0.385382 0.0722,1.651517 0.10508,2.803072 0.11666,3.5593748 0.23295,4.2976578 1.23037,7.8168588 0.38978,1.366856 0.85867,3.047134 1.05391,3.743072 0.18997,0.686072 0.3619,1.267438 0.39222,1.276593 0.0303,0.0092 -0.004,-0.50597 -0.0829,-1.150121 -0.0733,-0.634294 -0.26432,-2.412696 -0.41792,-3.931604 -0.44451,-4.336718 -0.6828,-6.0135618 -1.26538,-9.0435178 l -0.53667,-2.82583 0.72814,-0.822522 c 0.40813,-0.447594 0.76834,-0.818659 0.80396,-0.799633 0.0402,0.0038 0.24786,1.836911 0.46168,4.060633 0.38688,3.8974108 0.4222,4.0818038 0.91641,5.5959978 0.55315,1.647806 0.66943,2.386094 0.94273,6.166489 0.18005,2.445152 0.20379,2.750146 0.24327,2.728966 0.0197,-0.01059 0.0523,-0.447455 0.0677,-0.964014 0.0305,-0.511972 0.0813,-1.365263 0.13679,-1.877952 0.12892,-1.27644 0.12594,-2.609237 0.0125,-4.124283 -0.0602,-0.70481 -0.0718,-1.461122 -0.0335,-1.697724 0.13577,-0.860733 0.16168,-2.234441 0.0703,-3.3292078 -0.12284,-1.319355 -0.44598,-2.632987 -1.32353,-5.288733 -0.34631,-1.072452 -0.63897,-2.0211699 -0.64183,-2.1212997 0.003,-0.090267 0.27696,-0.478927 0.61671,-0.86444886 0.62171,-0.6892035 0.62171,-0.6892035 0.66904,-0.4350105 0.034,0.1342831 0.30509,2.08581706 0.61975,4.33171406 0.57841,4.112424 0.67168,4.570749 1.66711,7.4937178 0.18638,0.560902 0.65555,2.075813 1.03332,3.372863 0.38764,1.291747 0.71878,2.359629 0.75897,2.363492 0.0304,0.0092 -0.006,-0.200279 -0.0689,-0.484089 -0.226,-0.895503 -0.78469,-4.141604 -0.91842,-5.315329 -0.0733,-0.634288 -0.0857,-1.771395 -0.0222,-2.5298508 0.2514,-2.77817 -0.0291,-4.178207 -2.03411,-10.16904746 -0.10414,-0.3127095 -0.0661,-0.38394954 0.5077,-0.99661824 0.34047,-0.360479 0.63759,-0.6595933 0.65805,-0.6451454 0.0303,0.00912 0.13946,0.4970976 0.25675,1.0950515 0.3307,1.75437344 0.83147,3.8496416 1.1506,4.8477106 0.16978,0.506255 0.83994,2.040485 1.49523,3.404769 0.98486,2.026326 1.23263,2.630573 1.36121,3.2733018 0.22256,1.126093 0.26658,2.843552 0.11307,4.311105 -0.0801,0.703812 -0.10847,1.290882 -0.0682,1.294739 0.24261,0.07325 0.83804,-2.94023 0.86253,-4.36401 0.0199,-1.408614 -0.18492,-2.2646288 -0.94862,-4.0918218 -0.86041,-2.05494 -1.08713,-2.975471 -1.05062,-4.329439 0.0282,-0.9428446 -0.27749,-1.8210348 -1.4144,-4.08354046 l -1.06283,-2.12431534 0.92943,-0.968575 c 0.51598,-0.5308518 0.97947,-0.9700013 1.03941,-0.9767294 0.085,-0.00747 0.20798,0.7907857 0.96604,6.2810706 0.4218,3.0145036 0.80658,4.2061206 2.76586,8.5947956 0.82893,1.8303468 1.52341,3.3388248 1.54386,3.3532688 0.066,0.02819 0.0653,0.0031 -0.45772,-1.991263 -0.53954,-2.0490638 -0.90241,-4.0530598 -1.25999,-6.9240868 -0.51075,-4.19953526 -0.61244,-4.60251496 -2.01041,-8.1102697 -0.43657,-1.0748905 -0.76871,-2.0024329 -0.75497,-2.0479243 0.0563,-0.1318877 1.33896,-1.366099 1.40949,-1.3530808 0.0303,0.00916 0.32483,2.0752356 0.66181,4.5760448 0.66694,5.107052 0.66623,5.082014 1.52261,7.698281 0.3403,1.03755 0.99199,3.15356 1.43156,4.68435 0.44486,1.5406568 0.8332,2.8574438 0.85967,2.9067908 0.0418,0.05383 -0.0665,-0.574346 -0.22513,-1.391597 -0.75423,-3.7766778 -1.02984,-6.2341458 -0.87531,-7.8420238 0.31048,-3.16570056 0.0779,-4.6422671 -1.52229,-9.6174413 l -0.7145,-2.2094275 0.7652,-0.7534321 c 0.42401,-0.4179838 0.77576,-0.7336841 0.78635,-0.7139413 0.0106,0.019773 0.0676,0.78978 0.14416,1.7146011 0.18292,2.5452894 0.32037,3.3230613 0.9456,5.389723 1.06337,3.54737734 1.13288,3.70073144 3.44863,8.1143021 1.34121,2.572343 2.09133,3.923904 2.03412,3.675002 -0.0512,-0.214007 -0.34202,-0.922246 -0.64585,-1.559979 -0.99759,-2.121165 -1.44931,-4.077529 -1.69171,-7.30260206 -0.19778,-2.71524104 -0.84919,-4.99661714 -2.79987,-9.96178704 -0.45989,-1.1894711 -0.46446,-1.1743031 0.2458,-1.7457761 l 0.30841,-0.254347 0.28351,0.979039 c 0.14546,0.532009 0.49963,1.8798348 0.78672,2.9840418 0.77226,3.0045007 1.02745,3.6937242 2.41599,6.520282 0.69161,1.40834674 1.56362,3.3426859 1.9268,4.3044174 0.6547,1.69502 1.7341,4.750881 1.881,5.332961 0.0445,0.15407 0.0974,0.252774 0.11114,0.207279 0.0412,-0.136467 -0.77411,-4.121864 -0.99581,-4.867165 -0.2708,-0.884196 -0.65756,-2.67204276 -0.91416,-4.28822716 -0.60189,-3.70587264 -1.19135,-5.39774544 -3.44932,-9.89313204 -0.60092,-1.215528 -1.09071,-2.223742 -1.08156,-2.254073 0.003,-0.04018 1.45214,-1.439481 1.52123,-1.476531 0.01,-0.0051 0.0608,0.374076 0.10927,0.843709 0.0386,0.474935 0.17363,1.342963 0.28106,1.946206 l 0.20139,1.086615 1.52429,2.8427216 c 1.60897,3.0006581 2.69067,4.7335898 4.94637,7.92122524 1.87436,2.64230736 2.00694,2.72371836 0.8683,0.5765041 -0.90046,-1.7030266 -1.20714,-2.44088704 -2.07054,-4.95172454 -0.35017,-1.0322551 -3.14426,-6.9304174 -4.28748,-9.0624564 -0.97913,-1.826062 -0.97385,-1.816185 -0.37359,-2.37951 0.39053,-0.361906 0.51355,-0.440585 0.56649,-0.341853 0.037,0.0691 0.27751,0.94414 0.52682,1.954216 0.45729,1.800871 0.47389,1.855514 1.27022,3.245835 0.92794,1.6120503 1.16039,1.8559622 2.7199,2.7735093 0.91237,0.5401796 3.48324,1.779617 4.38989,2.1195241 l 0.42527,0.1532193 -0.38264,-0.2396226 c -0.20913,-0.1293185 -1.15783,-0.7135563 -2.10124,-1.2879205 -2.35587,-1.4309768 -2.60277,-1.6544253 -3.29082,-2.9376003 -0.42341,-0.7896513 -0.60765,-1.2754483 -0.78531,-2.0570773 -0.21612,-0.900794 -0.34528,-1.212795 -1.18153,-2.772347 l -0.94209,-1.756958 0.34189,-0.310405 c 0.1854,-0.175681 0.47866,-0.434582 0.63445,-0.594363 0.16108,-0.149905 0.32744,-0.28996 0.35704,-0.305853 0.0296,-0.01569 0.18524,0.345476 0.33844,0.797083 0.443,1.300185 1.53644,3.268295 2.30861,4.163231 0.84483,0.983062 1.09489,1.141273 2.16404,1.381335 1.16999,0.262238 1.43764,0.334767 1.89469,0.547204 l 0.38579,0.174394 -0.42956,-0.303423 c -1.23337,-0.901814 -2.20095,-1.971564 -2.84665,-3.175776 -0.2752,-0.513277 -0.93276,-1.431544 -1.76921,-2.46992 -0.74256,-0.910813 -1.32147,-1.706044 -1.3032,-1.766673 0.0465,-0.126599 3.19267,-2.957359 4.35267,-3.92249 0.38666,-0.321738 0.70425,-0.606378 0.71341,-0.636709 0.0275,-0.09098 -1.43335,-0.184563 -1.59129,-0.09987 -0.11845,0.0635 -4.99369,4.812678 -5.39195,5.254986 -0.0973,0.10296 -0.26064,-0.177962 -1.07928,-1.8232 -0.71808,-1.4577 -1.16125,-2.23675 -1.74616,-3.066892 -1.58226,-2.239748 -1.69054,-2.346894 -4.37095,-4.264696 -1.35538,-0.963475 -2.4949,-1.737681 -2.53439,-1.71651 -0.0297,0.01574 0.0128,0.0948 0.0998,0.162512 0.78089,0.674205 4.02178,3.96901 4.3608,4.435358 0.23989,0.328878 0.88274,1.432942 1.43846,2.469358 0.90505,1.687867 1.1093,1.997731 2.06916,3.147866 0.58133,0.70497 1.06886,1.28232 1.07414,1.292189 0.0212,0.0395 -0.84201,0.870874 -0.98019,0.94497 -0.0691,0.03706 -1.49887,-0.899236 -3.17625,-2.084015 -1.6721,-1.174907 -3.45491,-2.366692 -3.95358,-2.63306 -0.51912,-0.280815 -2.12542,-0.906413 -3.73415,-1.441733 -1.55794,-0.511728 -3.81483,-1.284097 -5.01487,-1.720854 -3.29615,-1.193682 -3.40157,-1.200686 -1.00179,-0.161815 1.52734,0.667936 2.90561,1.555587 5.04861,3.253209 1.84075,1.465732 2.95481,2.050258 8.14863,4.247036 l 3.00775,1.27206 -0.59953,0.588357 c -0.33131,0.330153 -0.70669,0.696644 -0.83285,0.840546 -0.13149,0.134021 -0.24849,0.247618 -0.26824,0.258204 -0.0297,0.01574 -3.06609,-1.736402 -4.67711,-2.702603 -2.40135,-1.444707 -4.38044,-2.31521 -5.8364,-2.589313 -1.38014,-0.251228 -6.47185,-0.977744 -6.5607,-0.930108 -0.0395,0.02117 1.43737,0.500133 3.28728,1.058642 l 3.36167,1.031452 2.26674,1.643976 c 2.57886,1.870583 3.37164,2.258833 5.79491,2.891165 0.79764,0.207724 1.45495,0.414447 1.44121,0.459939 -0.0366,0.121296 -1.77142,1.839447 -1.95367,1.949873 -0.16779,0.09 -1.68225,-1.004248 -3.90321,-2.79985 -1.14382,-0.924418 -2.70304,-2.007345 -3.50712,-2.44037 -0.32586,-0.181104 -1.6236,-0.70527 -2.88501,-1.185367 -1.27128,-0.474813 -3.29829,-1.268785 -4.50505,-1.765479 -3.00174,-1.23715 -3.32545,-1.343161 -1.66338,-0.518732 1.58555,0.776513 2.96139,1.754431 4.95491,3.481374 1.9064,1.659279 3.15521,2.400299 8.0113,4.701933 1.45293,0.695107 2.63294,1.307816 2.62451,1.363176 -0.002,0.115302 -0.7373,0.8528481 -0.80854,0.8147931 -0.1728,-0.085264 -3.22518,-1.8671471 -4.29589,-2.5130451 -1.82016,-1.095509 -3.53445,-1.993616 -4.41534,-2.309202 -0.41012,-0.148637 -1.43522,-0.425033 -2.28222,-0.606291 -2.26947,-0.511455 -5.04464,-1.183845 -7.4277,-1.812302 -1.16613,-0.302438 -2.10483,-0.536204 -2.08895,-0.506593 0.0212,0.0395 0.77547,0.308574 1.69584,0.602995 2.06363,0.672664 3.52402,1.452745 6.31976,3.372244 1.64563,1.125553 3.19728,1.76774 8.43146,3.447253 l 3.36307,1.0815266 -0.68693,0.6860528 c -0.37995,0.3816507 -0.77506,0.7587218 -0.88821,0.832106 -0.14731,0.1044938 -0.60367,-0.082987 -2.33842,-0.9955352 -2.57903,-1.3494392 -2.63968,-1.3677487 -5.97674,-2.5903252 -1.45323,-0.529745 -2.98371,-1.132447 -3.40585,-1.35089 -0.95571,-0.478808 -3.62687,-2.071151 -5.5666,-3.31859 -0.79106,-0.503557 -1.43363,-0.896102 -1.44807,-0.875639 -0.0503,0.166791 9.80624,7.1961882 10.95134,7.8149088 1.18072,0.637741 4.63823,1.5161337 6.71788,1.697278 0.28139,0.027039 0.52329,0.075251 0.54445,0.1147402 0.0317,0.059224 -1.75626,1.8440221 -1.96354,1.955164 -0.0593,0.031759 -0.91123,-0.3247342 -1.88211,-0.8081217 -6.26567,-3.0581108 -7.56369,-3.4169054 -12.82022,-3.5975386 -3.60143,-0.1276724 -6.81247,-0.096123 -6.7278,0.061805 0.0106,0.019773 1.04197,0.1656717 2.2941,0.3203304 1.72003,0.2214746 2.87944,0.4639741 4.76354,0.9914354 1.36398,0.386976 3.41874,0.9246029 4.57358,1.1822533 1.89642,0.4319094 8.84575,2.5134247 8.93572,2.6812301 0.037,0.069098 -1.33397,1.5413307 -1.4052,1.5032845 -0.26908,-0.1226035 -6.57869,-2.7886045 -7.53683,-3.1771528 -1.60172,-0.6407526 -3.66636,-1.1730855 -4.93678,-1.2670938 -0.53243,-0.044926 -2.42098,-0.2014686 -4.19952,-0.3661468 -1.77325,-0.1548176 -3.46609,-0.3019016 -3.75735,-0.3236547 l -0.52714,-0.035062 0.32443,0.1310437 c 0.16751,0.07539 1.45711,0.4895437 2.85284,0.9357463 1.39043,0.436329 4.1061,1.305845 6.02795,1.927439 3.63146,1.1790862 5.30255,1.6174264 8.90069,2.3314618 1.16399,0.2273267 2.15733,0.4445044 2.20354,0.4832677 0.0409,0.028847 -0.23963,0.3826597 -0.61428,0.77417884 l -0.68623,0.7110861 -3.49341,-0.7320597 c -6.19534,-1.29129374 -6.64738,-1.32849434 -10.52262,-1.04247124 -1.3451,0.098531 -3.3305,0.2353916 -4.41082,0.3063266 -3.06571,0.2077899 -3.05126,0.1873361 -0.63801,0.4691899 0.89492,0.1047372 3.41432,0.41863314 5.59697,0.69705554 4.62695,0.5944668 6.45027,0.7478478 9.74456,0.8241645 1.32365,0.027344 2.57749,0.066707 2.77318,0.076146 l 0.37623,0.014315 -0.97592,1.09517396 -0.96605,1.0898885 -3.33433,-0.6013139 c -4.85025,-0.8686973 -4.81005,-0.8648305 -10.11323,-0.3977352 -1.89441,0.1643297 -3.499,0.3003302 -3.56423,0.2971882 -0.0554,-0.00843 -0.0948,0.012768 -0.079,0.042336 0.0423,0.078962 9.60467,1.0135539 11.07007,1.0919729 0.71752,0.03463 2.23687,0.07143 3.37927,0.06888 1.1424,-0.0025 2.06092,0.05139 2.03803,0.127204 -0.0412,0.136472 -1.20422,1.522603 -1.33254,1.591414 -0.0494,0.02647 -1.76723,-0.119917 -3.82716,-0.311641 -2.05533,-0.206894 -3.97351,-0.347549 -4.27848,-0.32381 -0.30499,0.02374 -1.35741,0.194091 -2.34461,0.367594 -0.98718,0.173493 -2.8075,0.476014 -4.05491,0.661954 -1.23753,0.18065 -2.28996,0.350998 -2.3393,0.377464 -0.0395,0.02117 0.6114,0.0026 1.46183,-0.04675 2.23115,-0.128838 3.92115,-0.08189 6.58402,0.167786 2.58778,0.251822 4.34157,0.251857 6.53425,0.0038 0.79435,-0.08281 1.48401,-0.1476 1.54466,-0.129291 0.0956,0.0123 -1.1164,1.615304 -1.29407,1.71057 -0.0395,0.02117 -1.45196,0.04145 -3.15569,0.03999 -2.62539,0.0098 -3.27556,0.05344 -4.38578,0.305611 -0.71182,0.165643 -2.36993,0.533673 -3.6744,0.82647 -1.30977,0.282927 -2.38437,0.554131 -2.39352,0.584451 -0.009,0.03043 0.31555,-0.004 0.71997,-0.05563 1.49173,-0.227992 3.10232,-0.329091 6.05175,-0.398269 2.77946,-0.0543 3.34394,-0.115519 6.21068,-0.623295 0.14949,-0.02931 -0.64375,1.145816 -0.86091,1.262259 -0.0395,0.02117 -1.63778,0.02673 -3.54249,0.0059 -2.25061,-0.02594 -3.61231,0.01795 -3.90986,0.126668 -0.24818,0.08227 -1.62706,0.402222 -3.06199,0.6887278 -1.42966,0.296366 -2.55503,0.543966 -2.49439,0.56228 0.36321,0.08483 6.92021,-0.342904 9.34276,-0.612504 1.5584,-0.1747728 2.97188,-0.3353898 3.14182,-0.3502698 0.29512,-0.01844 0.29054,-0.0033 -0.17638,0.6664698 l -0.47681,0.675049 -2.81609,0.175608 c -1.96107,0.111107 -3.0999,0.238826 -3.75108,0.42278 -0.51684,0.150053 -1.72576,0.455153 -2.67591,0.697746 -0.95542,0.23272 -1.73634,0.435412 -1.7508,0.455866 -0.0222,0.100861 6.41798,-0.734433 8.34229,-1.080006 1.20649,-0.214839 2.25433,-0.370023 2.31956,-0.366874 0.0607,0.01829 -0.0528,0.257057 -0.25048,0.528275 l -0.3718,0.491663 -1.51047,0.09823 c -2.59536,0.184346 -3.4574,0.354272 -4.84743,0.985244 -0.67791,0.299963 -1.92131,0.801469 -2.75473,1.095853 -0.84328,0.299675 -1.54696,0.575314 -1.55082,0.615515 -0.009,0.03033 1.14198,-0.192961 2.58149,-0.494618 z"
       id="path4-64"
       style="fill:#72e1d1;fill-opacity:1;stroke:none;stroke-width:0.0112"
       inkscape:transform-center-x="-25.818177"
       inkscape:transform-center-y="-17.008605" />
    <path
       d="m 5.2272848,24.21881 c 4.3863568,1.185902 5.8733812,1.542283 10.9305332,2.619378 l 2.682873,0.564468 -0.873466,0.574016 -0.892693,0.57439 -1.679566,-0.371966 c -1.351393,-0.301272 -2.140781,-0.363247 -3.81161,-0.273993 -1.171551,0.06066 -3.6502512,0.126632 -5.5143559,0.16187 -1.8833191,0.03559 -3.4015118,0.0643 -3.362347,0.101985 0.019608,0.01886 1.3318257,0.282405 2.9334206,0.598181 3.2224119,0.631164 6.4745373,0.800377 8.9865913,0.464526 0.824534,-0.111715 1.496061,-0.182079 1.496788,-0.143644 2.37e-4,0.01923 -0.207756,0.196177 -0.473531,0.37422 -0.379631,0.257096 -1.1846,0.387624 -3.315922,0.524069 -3.0719024,0.211865 -3.0146164,0.191548 -6.2485451,2.002106 -0.8368516,0.477208 -1.5058438,0.682101 -2.4841134,0.796733 -1.7070977,0.20529 -1.0685631,0.423893 1.1610444,0.400997 1.9797723,-0.01822 3.6273947,-0.31849 5.6513851,-1.048832 0.897819,-0.305194 1.642907,-0.550108 1.662493,-0.531237 0.01961,0.01886 -0.563083,0.721956 -1.296582,1.581689 -1.2030474,1.445362 -5.7871126,8.106759 -5.6692669,8.239103 0.098273,0.113489 5.0203679,-3.920559 6.2850519,-5.155608 1.227357,-1.176663 2.479331,-3.084315 3.327011,-5.022789 0.441971,-1.027253 1.363657,-2.102012 1.80565,-2.110369 0.115303,-0.0022 -0.05072,0.366226 -0.368724,0.833613 -1.009051,1.537815 -1.670732,3.145943 -2.131883,5.192457 -0.460789,2.065717 -0.95925,5.189497 -0.946535,5.862109 0.02756,0.44165 2.748627,-6.126869 3.383461,-8.138206 0.235658,-0.754213 0.577182,-2.010261 0.734886,-2.820668 l 0.318299,-1.467071 1.389805,-0.718352 c 0.78066,-0.399247 1.409755,-0.680278 1.410843,-0.622621 0.0011,0.05757 -0.703025,1.455117 -1.575373,3.105677 -0.872336,1.650573 -1.797257,3.571273 -2.053223,4.268198 -0.4561,1.296664 -2.488515,9.716933 -2.35182,9.829688 0.05872,0.05653 2.23378,-4.886782 4.072712,-9.304707 0.404622,-0.968877 1.245766,-3.253264 1.864289,-5.110494 1.129008,-3.327952 1.426681,-3.852635 2.252311,-3.906696 0.134521,-0.0025 -0.229848,1.061692 -0.782035,2.36016 -1.435398,3.391418 -1.668148,4.299368 -2.137223,7.960876 -0.469802,3.623074 -0.957431,5.285598 -2.710086,9.182837 -0.553638,1.221607 -0.995251,2.268075 -0.994163,2.325733 10e-4,0.0576 0.432562,-0.508022 0.956848,-1.248455 1.216444,-1.753196 2.2157,-3.809879 2.996647,-6.227696 0.345513,-1.04465 1.062306,-2.788401 1.580413,-3.855532 1.351667,-2.736197 2.337423,-6.52282 2.636442,-10.027328 l 0.110918,-1.251686 0.934034,-0.421358 c 0.533753,-0.240743 0.992413,-0.384029 1.050792,-0.346699 0.03951,0.05685 -0.518809,2.047602 -1.281264,4.426615 -1.541595,4.892924 -1.981703,7.035157 -2.218711,10.769188 -0.08842,1.424273 -0.272537,3.888487 -0.396487,5.467236 -0.229054,3.137902 -0.245365,3.292009 -0.132243,3.174524 0.03767,-0.03911 0.539119,-1.990305 1.090903,-4.326895 0.551795,-2.336584 1.229018,-5.156153 1.515435,-6.27659 0.785994,-3.167655 1.521934,-6.949568 2.01385,-10.419258 0.255211,-1.754245 0.553208,-3.278615 0.68556,-3.396463 0.245109,-0.254546 3.334728,-1.562538 3.432641,-1.468272 0.03925,0.03781 -0.787492,2.071906 -1.836756,4.533239 -1.049631,2.442121 -2.186266,5.366494 -2.530322,6.488022 -0.543482,1.759698 -3.046019,14.802717 -2.870157,14.953188 0.09794,0.09425 3.687602,-10.35478 5.320918,-15.480123 0.816839,-2.55307 1.845762,-6.090593 2.273564,-7.867327 0.713842,-2.916388 0.841831,-3.264843 1.280936,-3.426936 0.267272,-0.10105 1.049328,-0.423564 1.755287,-0.706039 l 1.278501,-0.504767 -0.47895,1.10485 c -0.277002,0.601202 -1.18161,2.579178 -2.03219,4.363911 -2.606137,5.528231 -3.006048,6.746925 -4.23539,12.902766 -0.473831,2.392784 -1.072011,5.326205 -1.318174,6.541995 -0.246521,1.196575 -0.438662,2.219105 -0.3995,2.256812 0.03925,0.03781 0.389029,-0.776333 0.772996,-1.821707 0.384305,-1.026163 1.483602,-3.892154 2.437144,-6.332452 2.713419,-6.972089 3.661153,-9.719884 5.14145,-14.803882 l 1.390755,-4.736282 1.755653,-0.686856 c 0.973568,-0.364424 1.814053,-0.649441 1.853586,-0.592506 0.05832,0.03735 -1.058317,2.999799 -2.471229,6.563801 -2.457819,6.255951 -2.54809,6.56525 -2.977668,9.264784 -0.444079,2.949743 -0.843982,4.168433 -3.383757,10.156807 -1.637712,3.875835 -1.840021,4.360268 -1.763152,4.358813 0.03839,-7.21e-4 0.430017,-0.642528 0.857481,-1.419588 0.447064,-0.758205 1.19215,-2.021875 1.677998,-2.761588 1.195421,-1.848913 2.233472,-3.887101 3.245384,-6.290066 0.459374,-1.123695 1.033311,-2.288012 1.276971,-2.619437 0.880698,-1.208562 1.994882,-3.286636 2.711684,-5.03039 0.844406,-2.111423 1.378435,-4.370769 2.115424,-9.113916 0.309948,-1.909076 0.605055,-3.587181 0.679007,-3.742371 0.07437,-0.135984 0.797701,-0.51491 1.618238,-0.83802 1.488794,-0.566444 1.488794,-0.566444 1.362275,-0.141097 -0.05326,0.2317 -1.165632,3.424762 -2.441837,7.101524 -2.333433,6.734218 -2.549516,7.507268 -3.315499,12.750804 -0.154068,1.002579 -0.622446,3.683628 -1.060023,5.960382 -0.418351,2.276401 -0.747883,4.166615 -0.689506,4.203965 0.03919,0.03764 0.147928,-0.310388 0.273367,-0.793367 0.355294,-1.544681 2.041173,-6.940162 2.755058,-8.83765 0.384316,-1.026157 1.254847,-2.772817 1.945193,-3.881663 2.557244,-4.047011 3.223974,-6.404997 4.847666,-17.124479 0.08556,-0.559124 0.199413,-0.638186 1.555142,-1.125192 0.802175,-0.283957 1.489856,-0.508851 1.509832,-0.470704 0.03919,0.03764 -0.17583,0.868422 -0.464421,1.873553 -0.867222,2.938511 -1.741322,6.530774 -2.034597,8.304966 -0.136671,0.906131 -0.313155,3.773911 -0.379421,6.370459 -0.08072,3.865645 -0.174964,4.982445 -0.481316,6.064803 -0.540924,1.894219 -1.81717,4.552082 -3.199669,6.67368 -0.672947,1.012396 -1.175467,1.886994 -1.117091,1.924344 0.313287,0.301669 3.580138,-3.835667 4.7313,-5.991344 1.132312,-2.136089 1.489056,-3.603882 1.751818,-6.992349 0.293214,-3.811988 0.666994,-5.395462 1.781906,-7.435101 0.780621,-1.418138 1.000661,-2.99871 1.033861,-7.344057 l 0.0383,-4.076304 2.177478,-0.752125 c 1.203453,-0.407233 2.254976,-0.715453 2.351773,-0.678872 0.135614,0.05507 -0.300909,1.370624 -3.437769,10.350064 -1.713821,4.934626 -2.058217,7.055818 -2.498481,15.292203 -0.16559,3.444312 -0.284777,6.291782 -0.264841,6.329842 0.07875,0.09463 0.09719,0.05578 0.858516,-3.399722 0.778731,-3.552022 1.792064,-6.897002 3.49176,-11.562228 2.50493,-6.814345 2.664811,-7.509447 3.273382,-13.961139 0.173978,-1.983405 0.392205,-3.660051 0.448761,-3.718793 0.189284,-0.157336 3.113962,-1.039276 3.211481,-0.964258 0.0392,0.03772 -1.127194,3.424024 -2.568726,7.507635 -2.976263,8.322773 -2.957767,8.283977 -3.696215,12.950249 -0.291822,1.851061 -0.951617,5.593066 -1.477643,8.275207 -0.525677,2.701361 -0.962526,5.016549 -0.960708,5.11265 0.0214,0.114934 0.3477,-0.929358 0.744691,-2.301794 1.802251,-6.358903 3.303615,-10.328295 4.797426,-12.663462 2.95064,-4.592748 3.750443,-7.030146 5.197989,-15.88152 l 0.636941,-3.933827 1.758198,-0.5523127 c 0.974667,-0.3067497 1.758929,-0.5138677 1.759659,-0.4754247 7.47e-4,0.03847 -0.514468,1.2593114 -1.121058,2.7318304 -1.711664,4.031043 -2.11011,5.326619 -2.771726,8.972544 -1.150661,6.250461 -1.16442,6.539092 -1.079643,15.092354 0.03651,4.978443 0.125019,7.629745 0.232316,7.204787 0.08919,-0.366952 0.199001,-1.676296 0.233767,-2.888098 0.135475,-4.020463 0.975858,-7.362177 3.128417,-12.478115 1.82189,-4.30226 2.611479,-8.296646 3.515832,-17.406903 0.228004,-2.1766758 0.209144,-2.1570918 1.741102,-2.4744158 l 0.67009,-0.1472107 -0.332807,1.7172638 c -0.19396,0.9264457 -0.707315,3.2623037 -1.132574,5.1735527 -1.170635,5.193511 -1.319981,6.445912 -1.410086,11.849684 -0.0452,2.692287 -0.226397,6.32913 -0.423937,8.082283 -0.32588,3.101293 -1.067554,8.613502 -1.298487,9.617535 -0.0525,0.270143 -0.04893,0.46231 0.0078,0.403579 0.169693,-0.17623 2.04189,-6.901733 2.286243,-8.213617 0.278051,-1.562436 1.085806,-4.595935 1.958121,-7.265395 1.979554,-6.131568 2.402605,-9.177025 2.470112,-17.810069 0.03294,-2.3267854 0.07344,-4.2499873 0.111165,-4.2891523 0.03737,-0.05832 3.344183,-1.06288 3.478702,-1.06542 0.01921,-2.37e-4 -0.199766,0.618952 -0.49307,1.3742488 -0.31253,0.7556587 -0.785305,2.1871978 -1.093123,3.1926965 l -0.542377,1.817342 0.104619,5.53467 c 0.110435,5.842136 0.407163,9.335373 1.359198,15.969035 0.79609,5.502363 0.93499,5.730435 0.875366,1.559854 -0.04328,-3.305783 0.06545,-4.672775 0.710731,-9.18349 0.27261,-1.850703 0.618489,-13.045866 0.540022,-17.1968494 -0.06719,-3.5552589 -0.06684,-3.5360369 1.290708,-3.9269623 0.879668,-0.2472807 1.129115,-0.2712571 1.132748,-0.079049 0.0026,0.1345204 -0.314676,1.6592484 -0.723977,3.3971836 -0.710228,3.1085571 -0.727628,3.2050061 -0.598811,5.9516641 0.156395,3.188301 0.320682,3.742706 1.985082,6.364214 0.971077,1.538822 3.928551,5.443149 5.047558,6.671584 l 0.529783,0.566731 -0.397063,-0.665357 c -0.218305,-0.361136 -1.210425,-1.995688 -2.20217,-3.611013 -2.479224,-4.028715 -2.681562,-4.563176 -2.728792,-7.061458 -0.02903,-1.537414 0.06953,-2.423597 0.409614,-3.756514 0.3745,-1.545037 0.421243,-2.12265 0.363853,-5.1590275 L 83.999777,4.3900458 84.764865,4.1833649 C 85.185483,4.0600896 85.835976,3.8940147 86.198899,3.7717233 86.562213,3.6687097 86.92591,3.5849739 86.983578,3.58391 c 0.05754,-0.00113 0.01269,0.6726227 -0.106558,1.4823029 -0.340395,2.3325846 -0.209726,6.1942261 0.269698,8.1652821 0.521473,2.162508 0.779672,2.599784 2.225011,3.802828 1.582056,1.315805 1.934141,1.635967 2.466097,2.317985 l 0.452897,0.568179 -0.418826,-0.799514 c -1.17851,-2.342331 -1.819665,-4.733261 -1.863984,-7.077806 -0.01886,-0.99931 -0.305046,-2.9163464 -0.770338,-5.1568053 -0.421752,-1.9721448 -0.683967,-3.6397143 -0.608542,-3.7180405 0.17005,-0.1570045 7.190207,-2.019903 9.71711,-2.58673767 0.842305,-0.18893627 1.550075,-0.37533887 1.587795,-0.41450057 0.113132,-0.1174714 -2.045091,-1.40316806 -2.352571,-1.39735886 -0.230629,0.00434 -11.392634,3.4450584 -12.346983,3.8091287 -0.229125,0.08137 -0.258903,-0.4757068 -0.222407,-3.6292067 0.04337,-2.7883615 -0.02416,-4.325043 -0.268168,-6.0506336 -0.664797,-4.6589645 -0.746393,-4.9073395 -3.340568,-9.9335595 -1.316678,-2.531953 -2.451677,-4.605961 -2.528554,-4.604507 -0.05763,0.001 -0.05467,0.154831 0.02538,0.326327 0.665414,1.640718 3.038503,9.208737 3.191561,10.186293 0.109157,0.690022 0.227448,2.8793605 0.265587,4.897214 0.06214,3.2861971 0.13172,3.9192841 0.698224,6.42697656 0.336544,1.53159504 0.629553,2.79486994 0.629927,2.81408944 0.0017,0.076868 -1.96743,0.6715806 -2.236467,0.6766791 -0.134528,0.00252 -1.586089,-2.5460918 -3.221512,-5.6679835 -1.635039,-3.1026753 -3.426022,-6.3177501 -3.979368,-7.1147211 -0.573293,-0.8350308 -2.53755,-3.0471615 -4.576145,-5.1233155 -1.979468,-2.000377 -4.822689,-4.945646 -6.31411,-6.551527 -4.101111,-4.401775 -4.256672,-4.494947 -1.403637,-1.03082 1.810513,2.215047 3.221468,4.649113 5.166934,8.918603 1.665164,3.6788355 2.909659,5.4431905 9.124817,12.86167846 l 3.59927,4.29591044 -1.376041,0.4296939 c -0.764349,0.2451564 -1.624419,0.5113038 -1.929699,0.6324489 -0.305803,0.101542 -0.573258,0.183891 -0.611683,0.184622 -0.05762,0.001 -3.325184,-5.05084707 -5.030208,-7.7869318 -2.53795,-4.0852822 -4.880062,-6.9631224 -6.889619,-8.5207569 -1.911656,-1.463377 -9.12096,-6.55615 -9.29392,-6.55288 -0.07686,0.0015 1.804334,1.888339 4.193198,4.188571 l 4.328089,4.2052295 2.176452,4.2843596 c 2.475978,4.87465166 3.383234,6.0878677 6.590126,8.9493581 1.055915,0.9412637 1.898254,1.7712215 1.841698,1.8299605 -0.150833,0.156649 -4.144794,1.4240368 -4.509569,1.4501728 -0.326688,0.0062 -1.784064,-2.8499414 -3.771971,-7.33010374 -1.024043,-2.30679786 -2.558653,-5.18067586 -3.448143,-6.47113056 -0.3561,-0.5315461 -1.928378,-2.3473797 -3.479623,-4.0674712 -1.570453,-1.719745 -4.045636,-4.51818 -5.500434,-6.220881 -3.617391,-4.237879 -4.028956,-4.653044 -2.135032,-2.093547 1.814522,2.426429 3.15114,4.996468 4.845327,9.1938145 1.614064,4.0258573 2.941962,6.1346595 8.559187,13.4491077 1.675629,2.1983575 2.998817,4.057345 2.942609,4.135306 -0.09282,0.174772 -1.793373,0.7259837 -1.872431,0.6121097 -0.197272,-0.265413 -3.465874,-5.3749999 -4.596154,-7.1991828 -1.923311,-3.0972235 -3.839365,-5.8100974 -4.938077,-6.9812489 -0.510193,-0.5478603 -1.85981,-1.7719317 -3.011817,-2.7113887 -3.066562,-2.5565505 -6.779651,-5.7545175 -9.928167,-8.5786705 -1.544709,-1.374178 -2.795701,-2.465563 -2.79461,-2.407897 0.0015,0.07686 0.943149,1.077963 2.118721,2.247654 2.626012,2.641775 4.246542,4.975762 7.015504,10.0947879 1.633233,3.0065917 3.501045,5.2013107 10.182457,11.8612453 l 4.291115,4.2828194 -1.585993,0.5105707 c -0.878921,0.2857557 -1.777425,0.5526377 -2.007663,0.5762397 -0.306767,0.04428 -0.85721,-0.5989777 -2.793202,-3.3499183 -2.884023,-4.0787418 -2.962347,-4.1541564 -7.10336,-8.6320779 -1.805433,-1.9459859 -3.671774,-4.0638415 -4.145713,-4.7277324 -1.08531,-1.4789959 -3.919876,-6.0008374 -5.907021,-9.4236724 -0.814435,-1.387992 -1.48891,-2.490257 -1.526981,-2.470299 -0.20739,0.215389 9.349823,18.66320573 10.614989,20.5040599 1.304685,1.8977765 5.898922,5.9441893 8.933909,7.8477061 0.408658,0.261416 0.740439,0.524291 0.741891,0.60116 0.0026,0.115295 -4.125201,1.442904 -4.52876,1.450534 -0.115303,0.0022 -1.13787,-1.208843 -2.242762,-2.7066917 C 45.083127,-0.00724384 43.381046,-1.5707053 35.492974,-5.9585486 30.09165,-8.9708085 25.162067,-11.434476 25.167876,-11.126998 c 7.5e-4,0.03847 1.462034,1.068164 3.253656,2.2838835 2.454109,1.683807 4.03544,2.9611752 6.500803,5.2407325 1.780767,1.6580797 4.498869,4.08665523 6.061352,5.3836116 2.558902,2.1432146 11.545788,10.7588914 11.551967,11.0855894 0.0025,0.134528 -3.243386,1.3109 -3.322447,1.197019 -0.315097,-0.397745 -7.867561,-9.4058131 -9.027201,-10.7488283 -1.945402,-2.23171 -4.682719,-4.6599269 -6.549763,-5.7973206 -0.778157,-0.4851182 -3.540462,-2.20155 -6.12837,-3.8443808 -2.587541,-1.6236188 -5.058319,-3.1725346 -5.486194,-3.4335926 l -0.777782,-0.4659097 0.393068,0.4539607 c 0.196896,0.246194 1.842779,1.8876018 3.625714,3.6609984 1.782594,1.7541767 5.25058,5.20668167 7.700002,7.65957 4.624706,4.6417816 6.834436,6.6185771 11.772038,10.5239279 1.600185,1.257788 2.947632,2.366561 2.987879,2.461917 0.03986,0.07614 -0.665354,0.397074 -1.543904,0.702038 l -1.604421,0.549536 -4.763559,-3.850963 C 31.357637,5.1161148 30.696246,4.7056805 24.553056,2.1111544 22.42133,1.2094502 19.281569,-0.13457151 17.575895,-0.87130623 c -4.845448,-2.08076567 -4.807371,-2.10070747 -1.341606,0.217599 1.285073,0.86002919 4.887911,3.31033173 8.004136,5.44300703 6.602666,4.5275088 9.267801,6.1880992 14.240173,8.8816482 2.000477,1.077205 3.884933,2.118154 4.176456,2.285658 l 0.563488,0.316174 -2.347422,0.909473 -2.328191,0.909108 -4.622856,-3.526814 C 27.190846,9.4434846 27.249223,9.4808333 18.783219,6.0458887 15.76093,4.8149798 13.203514,3.7675275 13.106328,3.7116967 c -0.07802,-0.056182 -0.15483,-0.054713 -0.153754,0.00287 0.0029,0.1537547 13.878317,9.0615113 16.055391,10.3276203 1.068946,0.614198 3.360957,1.858913 5.107978,2.748666 1.747017,0.889746 3.107875,1.690672 3.01359,1.788582 -0.169683,0.176226 -3.030522,1.383758 -3.280351,1.388482 -0.09609,0.0018 -2.605663,-1.565588 -5.602223,-3.469838 -2.977714,-1.92383 -5.797678,-3.639178 -6.282111,-3.841486 C 21.480404,12.45428 19.739562,11.891224 18.095902,11.384019 16.452237,10.876798 13.435045,9.9149473 11.384185,9.2231826 9.3525276,8.5310559 7.611689,7.9680092 7.5155974,7.9698252 c -0.076868,0.0015 0.9318888,0.4822197 2.2695262,1.0721114 3.5088924,1.5485134 6.0536444,2.9422504 9.9258824,5.4066814 3.755858,2.408961 6.434764,3.780926 9.978099,5.117336 1.278169,0.494896 2.382291,0.935413 2.460614,1.010827 0.136339,0.09354 -2.968881,1.594079 -3.314802,1.600619 -0.07686,0.0015 -2.25031,-1.072489 -4.851612,-2.407478 -4.018002,-2.038735 -5.045253,-2.480697 -6.938378,-2.963974 -1.216883,-0.30381 -4.037543,-1.038698 -6.259183,-1.61189 -2.2220139,-0.592399 -4.0756166,-1.018746 -4.1133239,-0.979585 -0.037756,0.03914 0.4851553,0.240753 1.1432762,0.478227 2.4569777,0.818655 4.9962767,1.924119 9.5556407,4.125639 4.288134,2.09131 5.19825,2.439368 9.974422,3.906264 0.251279,0.07218 -1.87965,1.246671 -2.302443,1.254656 -0.07686,0.0015 -2.522615,-1.240343 -5.415828,-2.762058 -3.41753,-1.800177 -5.531865,-2.798328 -6.071404,-2.865025 -0.443452,-0.06855 -2.799988,-0.65837 -5.2159928,-1.343234 -2.4156354,-0.665643 -4.3283466,-1.167763 -4.2500238,-1.092349 0.4884381,0.4137 10.8388836,4.889582 14.7502636,6.372832 2.517175,0.952084 4.80192,1.812443 5.073145,1.922665 0.465217,0.202685 0.44636,0.222257 -0.790792,0.880052 l -1.256364,0.65816 -4.438971,-1.93466 C 14.344875,22.451308 12.505398,21.755541 11.366847,21.527145 10.459982,21.352045 8.3746722,20.872398 6.7335554,20.499719 5.0920717,20.107801 3.7406622,19.806534 3.7025968,19.826481 c -0.1127637,0.1367 10.3779912,3.898613 13.5877222,4.876068 2.010972,0.615622 3.732969,1.198255 3.830137,1.254092 0.07835,0.07546 -0.281709,0.351367 -0.795869,0.610996 L 19.372055,27.02781 16.987957,25.996304 C 12.879322,24.247646 11.429648,23.832888 8.8127926,23.709335 7.5426175,23.63723 5.2510074,23.430628 3.7476693,23.228345 2.2251221,23.026438 0.93463666,22.897036 0.89729876,22.955417 c -0.037756,0.03914 1.89531174,0.59857 4.33016154,1.263856 z"
       id="path4-5"
       style="fill:#72e1d1;fill-opacity:1;stroke:none;stroke-width:0.0192209" />
    <path
       d="m 340.35582,10.597358 c -0.34324,-0.466504 -0.91302,-1.0832948 -1.3819,-1.5176408 -0.79631,-0.726635 -2.31281,-1.803108 -2.79032,-1.990419 -0.69605,-0.260673 -1.58707,-0.262561 -2.56365,-0.0095 -0.80237,0.216999 -2.26986,0.865954 -2.60664,1.164942 -0.1461,0.133324 -0.0935,0.157772 0.52195,0.236006 1.82607,0.234719 3.16511,0.954406 4.96382,2.6389678 1.08325,1.018859 1.14357,1.221492 0.0805,0.263422 -1.24505,-1.120438 -1.90425,-1.5713878 -2.86334,-1.9338768 -1.50538,-0.586382 -2.90633,-0.759448 -3.53068,-0.448921 -0.44598,0.221814 -0.43814,0.339254 0.0627,1.0207488 0.83589,1.152006 1.41014,1.5744 3.53829,2.599507 0.50978,0.252182 1.17317,0.630233 1.47243,0.84552 0.554,0.402126 0.554,0.402126 1.06215,1.444032 0.27822,0.57974 0.58859,1.285098 0.68924,1.568818 0.15702,0.437733 0.10858,0.360687 -0.33927,-0.498794 -0.94778,-1.865041 -1.4046,-2.275047 -3.63798,-3.328725 -0.74854,-0.34584 -1.62242,-0.781043 -1.94201,-0.95587 -0.70386,-0.398394 -1.70255,-1.186204 -1.83967,-1.461903 -0.0565,-0.113513 -0.13695,-0.194924 -0.16972,-0.178553 -0.11352,0.05647 -1.23826,1.414895 -1.73786,2.098293 -0.34528,0.485269 -0.45103,0.699702 -0.41495,0.873931 0.0562,0.255272 0.54868,1.001524 1.52603,2.295571 0.55328,0.746355 0.71052,1.022192 1.28305,2.295029 1.06422,2.363425 1.18069,2.821329 0.24901,0.98874 -0.43151,-0.867617 -1.07712,-2.002996 -1.42026,-2.53023 -0.55302,-0.84765 -1.49826,-2.036286 -1.9429,-2.442227 -0.14953,-0.138036 -0.21451,-0.06526 -2.21219,2.324091 l -2.06262,2.462113 0.98805,1.986597 c 0.89933,1.808231 1.00011,2.051425 1.17259,2.825363 0.10026,0.465968 0.15617,0.842739 0.13188,0.83459 -0.0324,-0.0041 -0.18547,-0.39324 -0.35459,-0.855312 -0.53547,-1.5037 -1.95202,-3.884061 -2.40124,-4.034867 -0.0971,-0.03263 -5.23451,6.618844 -5.24703,6.797024 -0.008,0.06477 0.0359,0.27548 0.10429,0.474072 0.22129,0.688977 0.40454,2.135228 0.35461,2.766922 -0.0582,0.736984 -0.22618,1.619548 -0.43421,2.31976 l -0.15497,0.501877 0.11085,-0.712575 c 0.17244,-1.097193 0.25995,-2.263421 0.21224,-2.684727 -0.0238,-0.210652 -0.19284,-0.733465 -0.37824,-1.167215 -0.27805,-0.660743 -0.34263,-0.770222 -0.42375,-0.689424 -0.25982,0.291051 -4.55969,5.433605 -4.72211,5.635767 -0.0935,0.137513 -0.15838,0.189986 -0.14204,0.121166 0.0285,-0.06478 1.50322,-2.22434 3.28256,-4.788303 1.78342,-2.576105 3.31092,-4.79229 3.40437,-4.929803 l 0.16255,-0.262906 -0.95153,-0.103266 c -3.02063,-0.338488 -4.82276,-0.403049 -5.56841,-0.194028 -1.46698,0.405955 -1.45886,0.401921 -0.56297,0.007 0.46213,-0.209652 1.09037,-0.431044 1.40236,-0.49519 1.06159,-0.22456 3.08257,-0.228376 5.31772,-0.005 0.59523,0.05796 1.13383,0.0834 1.18249,0.05921 0.11352,-0.05647 4.46787,-6.065611 4.43964,-6.122365 -0.0282,-0.0568 -2.01553,-0.656327 -3.08823,-0.921846 -1.13744,-0.294012 -3.105,-0.650525 -4.16994,-0.758079 -0.40895,-0.04946 -2.11798,-0.08953 -3.79467,-0.105221 -1.67668,-0.0157 -3.02125,-0.03474 -3.00096,-0.05495 0.19868,-0.108942 4.61798,-0.435744 5.68716,-0.421333 2.29628,0.04131 5.07779,0.448144 7.74532,1.1342 l 1.31961,0.334889 1.03558,-1.334318 c 0.57665,-0.731839 1.27918,-1.617312 1.56344,-1.981217 l 0.51977,-0.642858 -0.40033,-0.296501 c -0.63078,-0.475183 -2.25702,-1.3655908 -3.59628,-1.9840228 -3.40679,-1.582674 -6.45439,-2.565175 -8.71781,-2.825119 -0.87054,-0.103091 -0.25489,-0.126081 0.90323,-0.03454 3.19497,0.241664 5.12958,0.857311 9.43425,3.025088 2.26561,1.138794 2.73908,1.3180008 3.07154,1.152653 0.21079,-0.104896 1.30712,-1.418798 1.44956,-1.742499 0.0448,-0.09306 -0.18561,-0.332489 -0.82032,-0.87655 -0.47704,-0.410055 -1.73023,-1.50622 -2.76509,-2.427769 -1.047,-0.92562 -2.08598,-1.814778 -2.31242,-1.985361 -0.88152,-0.653919 -3.68069,-2.29605876 -4.78526,-2.80869846 -0.0769,-0.032532 -0.11731,-0.07313 -0.0929,-0.085273 0.073,-0.036322 2.47236,1.04609636 3.67798,1.66019826 2.03093,1.0330022 3.31686,1.9712882 6.12636,4.4679982 0.83274,0.738865 1.33007,1.128724 1.33835,1.043699 0.009,-0.307792 -0.29599,-1.754297 -0.56148,-2.613469 -0.33383,-1.09827 -0.92688,-2.188985 -1.69446,-3.1018696 -0.27468,-0.3286446 -0.49277,-0.62475066 -0.48467,-0.64899826 0.0286,-0.085012 1.41867,1.36786246 1.82659,1.90333286 0.46853,0.616573 1.0528,2.015097 1.30559,3.133443 0.22868,1.029193 0.24897,1.008984 0.36153,-0.513595 0.14184,-1.951814 0.024,-3.6733303 -0.322,-4.77567216 -0.2172,-0.7011213 -0.93568,-1.84071584 -1.40064,-2.22643334 -0.43261,-0.3613708 -1.46051,-0.7402002 -2.86115,-1.0550131 -1.54639,-0.343476 -5.77707,-1.1016815 -6.42903,-1.1516586 -1.38087,-0.092026 -2.74629,0.1723928 -4.25025,0.8293647 -2.67957,1.1809926 -5.20344,3.42747904 -7.85967,6.9737445 -0.97882,1.306098 -2.63663,3.850063 -2.58017,3.963585 0.0162,0.03236 0.13763,0.03269 0.27947,-0.0075 0.74557,-0.168527 2.71845,-0.411404 3.50418,-0.417849 0.98418,-0.01412 1.73314,0.129221 3.89866,0.721057 0.77311,0.212232 2.09271,0.547129 2.93472,0.735212 2.47339,0.560093 3.71551,1.1459158 4.0946,1.9081288 0.22182,0.445972 0.16454,0.717207 -0.18414,0.890619 -0.77843,0.387162 -2.7217,0.0388 -6.95531,-1.254023 -3.03553,-0.9379288 -5.33178,-0.9994858 -7.46376,-0.222335 -2.32652,0.853689 -3.37548,2.771185 -3.51684,6.411869 -0.0217,0.708711 0.10324,2.891951 0.17986,3.046013 0.0199,0.0407 0.29607,-0.197825 0.62075,-0.521146 0.7874,-0.796187 1.79742,-1.531159 2.42564,-1.75258 0.86334,-0.318117 2.273,-0.432599 5.95053,-0.481521 2.06152,-0.02398 4.34069,0.450631 4.91455,1.03506 0.24653,0.251626 0.25456,0.288076 0.15283,0.510624 -0.057,0.129462 -0.15445,0.258879 -0.21121,0.287101 -0.34056,0.169404 -1.71393,0.356829 -3.41515,0.454491 -2.24806,0.13699 -2.65722,0.188778 -3.56903,0.450101 -1.58453,0.454301 -2.99148,1.204637 -4.09112,2.18647 -0.69386,0.618193 -0.97835,1.083332 -1.04038,1.690716 -0.12403,1.194499 0.36318,2.540138 1.89658,5.196159 1.23479,2.136989 1.40404,2.538297 2.05098,4.957542 0.5184,1.916755 0.84082,2.666702 1.20506,2.788968 0.14166,0.0408 1.13002,-0.02595 2.19949,-0.153297 2.04175,-0.246788 2.66547,-0.253569 5.27336,-0.09415 1.82633,0.113222 3.11439,0.03899 3.77509,-0.218816 0.37291,-0.145022 0.5514,-0.274235 0.88027,-0.650147 0.23547,-0.258673 0.45481,-0.570099 0.50772,-0.68744 0.1181,-0.311599 0.11248,-1.482079 -0.0296,-3.252241 -0.15004,-1.826881 -0.13598,-2.734067 0.0315,-3.373616 0.13471,-0.501928 0.4025,-0.736262 0.74659,-0.654533 0.27527,0.06538 0.60166,0.843692 0.96721,2.270071 0.38158,1.499319 0.42847,2.305379 0.20186,4.127419 -0.11137,0.955569 -0.116,1.230959 0.002,1.243366 0.52647,0.02136 3.12367,-0.511806 4.26252,-0.88605 1.00508,-0.317821 1.34984,-0.560097 1.66701,-1.142589 0.60986,-1.112469 0.70918,-4.024234 0.2419,-7.139705 -0.47536,-3.111436 -0.49858,-3.625841 -0.23031,-4.082923 0.45524,-0.772606 1.49366,0.379805 2.39201,2.653781 0.62441,1.58083 0.94915,3.148888 1.25082,6.053404 l 0.0594,0.64813 0.36087,-0.250522 c 0.92071,-0.629818 2.56785,-1.975036 3.09954,-2.512571 1.4571,-1.483281 2.8792,-3.647042 3.9209,-5.965515 0.67954,-1.501135 1.57216,-4.180368 1.77715,-5.354445 0.19661,-1.048543 0.21219,-2.664472 0.0439,-3.511287 -0.1242,-0.636114 -0.96266,-2.504957 -1.35844,-3.036354 z"
       id="path8-0-4"
       style="fill:#8d3b72;fill-opacity:1;stroke:none;stroke-width:0.00905613"
       inkscape:transform-center-x="-38.053067"
       inkscape:transform-center-y="1.6663246" />
    <path
       d="m 254.00314,-2.200732 c -0.55532,-0.164507 -1.38193,-0.3120646 -2.01796,-0.3750999 -1.07353,-0.098266 -2.93234,-0.04045 -3.42608,0.098629 -0.7122,0.2125824 -1.42352,0.7491586 -2.04908,1.54066304 -0.50848,0.6575203 -1.28623,2.06099896 -1.3741,2.50269576 -0.0359,0.1945032 0.0208,0.1821986 0.55854,-0.1271065 1.59722,-0.91569486 3.09914,-1.15071876 5.55013,-0.89428246 1.4787,0.1578902 1.64915,0.2829715 0.22319,0.1613911 -1.669,-0.1411676 -2.46675,-0.1024939 -3.4501,0.1877863 -1.554,0.44172646 -2.77515,1.14983406 -3.08526,1.77439986 -0.22152,0.44612 -0.14431,0.535009 0.66637,0.775752 1.36195,0.413382 2.07474,0.403287 4.39005,-0.06485 0.55861,-0.106855 1.3157,-0.206159 1.68423,-0.215287 0.68442,-0.01405 0.68442,-0.01405 1.71863,0.50958 0.57188,0.294068 1.24522,0.668856 1.49679,0.834202 0.38952,0.254052 0.30436,0.221919 -0.57159,-0.192813 -1.88175,-0.914158 -2.49347,-0.965079 -4.90993,-0.456154 -0.80547,0.176385 -1.76481,0.357254 -2.12513,0.410902 -0.80161,0.107535 -2.07339,0.08272 -2.34917,-0.05422 -0.11357,-0.05637 -0.22701,-0.07227 -0.24312,-0.03983 -0.0564,0.113564 -0.13248,1.875539 -0.11798,2.721963 0.0178,0.595308 0.0631,0.830083 0.19703,0.947159 0.19894,0.169538 1.04217,0.466911 2.60265,0.90807 0.89173,0.260782 1.18369,0.385522 2.40867,1.054424 2.27551,1.2411088 2.64489,1.5357108 0.79557,0.6376898 -0.86791,-0.430936 -2.06815,-0.9460078 -2.66005,-1.1590168 -0.95271,-0.341601 -2.42392,-0.71822 -3.02348,-0.773257 -0.20255,-0.01968 -0.21039,0.07754 -0.35969,3.1883868 l -0.15713,3.208076 1.98725,0.986737 c 1.80882,0.898134 2.03602,1.031124 2.64088,1.543827 0.36131,0.310845 0.63341,0.577393 0.60913,0.585564 -0.0284,0.0161 -0.38531,-0.201443 -0.79916,-0.467594 -1.33489,-0.875146 -3.90147,-1.916956 -4.3506,-1.765878 -0.0971,0.03269 -0.175,8.436737 -0.0773,8.586315 0.0329,0.05634 0.19497,0.197897 0.36943,0.314882 0.59246,0.415507 1.61191,1.457584 1.9536,1.991242 0.39866,0.622581 0.79778,1.427442 1.05483,2.111193 l 0.17958,0.493604 -0.34199,-0.6349 c -0.52517,-0.978646 -1.15971,-1.961041 -1.45217,-2.268039 -0.14621,-0.153499 -0.59665,-0.468147 -1.00635,-0.701911 -0.62066,-0.358709 -0.73815,-0.407172 -0.75412,-0.293559 -0.0313,0.388894 -0.35292,7.084515 -0.3603,7.343745 0.009,0.166025 -0.0115,0.247076 -0.04,0.182359 -0.0164,-0.06881 -0.14516,-2.680732 -0.27532,-5.798901 -0.13425,-3.130319 -0.25513,-5.819212 -0.2637,-5.985238 l -0.0292,-0.307728 -0.82079,0.492337 c -2.61201,1.55438 -4.08739,2.591247 -4.55547,3.208172 -0.9241,1.209478 -0.92007,1.201375 -0.44455,0.345489 0.24174,-0.446199 0.60876,-1.00207 0.81871,-1.241596 0.71053,-0.820082 2.31905,-2.043624 4.23551,-3.215364 0.50944,-0.313245 0.95409,-0.618243 0.97824,-0.666938 0.0564,-0.113575 -0.10194,-7.532806 -0.15871,-7.560992 -0.0568,-0.02815 -2.00285,0.694071 -3.01819,1.130243 -1.08416,0.452577 -2.86772,1.356643 -3.78147,1.914035 -0.35584,0.207524 -1.7422,1.207724 -3.08811,2.207761 -1.34588,1.000049 -2.42908,1.796871 -2.42511,1.768505 0.0925,-0.206824 3.41762,-3.136135 4.27852,-3.770337 1.8552,-1.35384 4.31791,-2.709335 6.85838,-3.773456 l 1.25405,-0.529996 0.0196,-1.6889248 c 0.0177,-0.931556 0.0429,-2.061589 0.0497,-2.523317 l 0.0261,-0.826279 -0.49814,0.0054 c -0.78974,0.0022 -2.62367,0.274601 -4.0646,0.590456 -3.67119,0.795916 -6.69363,1.853278 -8.65468,3.012992 -0.75612,0.4435588 -0.2793,0.05343 0.69907,-0.573002 2.6925,-1.736849 4.60628,-2.414473 9.34647,-3.286263 2.49354,-0.460532 2.97916,-0.603635 3.14429,-0.936197 0.10473,-0.210883 0.185,-1.920241 0.10305,-2.264267 -0.0205,-0.10119 -0.34872,-0.152943 -1.18318,-0.203261 -0.62786,-0.03876 -2.28871,-0.155637 -3.67008,-0.2652034 -1.39351,-0.1054794 -2.7586,-0.1867338 -3.0421,-0.1859455 -1.09754,0.011151 -4.32031,0.3927139 -5.51031,0.6511799 -0.0809,0.02051 -0.13766,0.01252 -0.12557,-0.01181 0.0361,-0.07305 2.60233,-0.6592819 3.93414,-0.8978884 2.24262,-0.4031422 3.8342,-0.4318555 7.5813,-0.1385194 1.10996,0.086011 1.74179,0.096405 1.69704,0.023632 -0.17893,-0.2505817 -1.29536,-1.21951736 -2.02583,-1.74399146 -0.92932,-0.6737743 -2.06071,-1.18497734 -3.2238,-1.44905874 -0.41743,-0.096039 -0.77007,-0.2003534 -0.77824,-0.2246392 -0.0286,-0.084951 1.95682,0.233515 2.60534,0.4139718 0.74579,0.2085243 2.05607,0.97034814 2.93293,1.70905944 0.80381,0.68222676 0.80778,0.6538673 -0.022,-0.6276928 -1.06569,-1.64134564 -2.19926,-2.94231934 -3.14073,-3.61200604 -0.59655,-0.4276558 -1.85741,-0.9020823 -2.46096,-0.9287262 -0.56302,-0.026787 -1.6111,0.2920255 -2.91762,0.8869721 -1.43997,0.6601104 -5.26994,2.6107231 -5.81977,2.96460784 -1.1562,0.760574 -2.08482,1.7959138 -2.8868,3.22780666 -1.4225,2.5595774 -2.07755,5.8742954 -2.05309,10.3049842 0.009,1.632146 0.22355,4.660979 0.33712,4.717364 0.0323,0.01629 0.12946,-0.05704 0.21822,-0.174737 0.49248,-0.584578 1.9183,-1.969609 2.54067,-2.449243 0.77593,-0.605617 1.45945,-0.94367 3.5429,-1.779724 0.74439,-0.297718 1.99842,-0.827713 2.78313,-1.186293 2.30967,-1.047281 3.6535,-1.330476 4.41596,-0.951887 0.44612,0.221517 0.56428,0.472284 0.39108,0.821069 -0.38662,0.778696 -2.14592,1.674591 -6.30107,3.200852 -2.98592,1.085623 -4.85332,2.423274 -6.08328,4.330213 -1.33882,2.085445 -1.01691,4.247275 1.06907,7.234464 0.41048,0.578143 1.82875,2.242693 1.98287,2.319209 0.0405,0.02023 0.11652,-0.336472 0.18005,-0.790255 0.14678,-1.110123 0.50795,-2.305886 0.87496,-2.861766 0.496,-0.774934 1.55045,-1.717479 4.45209,-3.977362 1.62865,-1.264093 3.73191,-2.262206 4.54225,-2.142963 0.34845,0.05168 0.37687,0.0759 0.43017,0.314715 0.0328,0.137606 0.0333,0.299615 0.005,0.356393 -0.16915,0.340674 -1.15059,1.319459 -2.44758,2.424676 -1.7091,1.466825 -2.00395,1.755189 -2.57289,2.514131 -0.98861,1.319016 -1.65689,2.766736 -1.94041,4.213393 -0.17973,0.911765 -0.12556,1.454314 0.19179,1.975886 0.62253,1.026973 1.82349,1.805309 4.64967,2.99626 2.27474,0.957593 2.652,1.175242 4.62866,2.712817 1.57074,1.214692 2.28062,1.617724 2.64477,1.495225 0.13754,-0.05304 0.88501,-0.703113 1.66054,-1.450478 1.47834,-1.429721 1.97137,-1.811796 4.14628,-3.259664 1.52405,-1.012707 2.50588,-1.849735 2.87681,-2.45422 0.20963,-0.340797 0.27389,-0.551561 0.30894,-1.049821 0.0315,-0.348397 0.0183,-0.72906 -0.0104,-0.854535 -0.094,-0.319691 -0.80542,-1.249196 -1.98764,-2.574353 -1.22286,-1.36551 -1.75949,-2.097084 -2.01229,-2.707942 -0.19574,-0.481413 -0.1238,-0.829915 0.1998,-0.972567 0.25888,-0.114119 0.98907,0.309103 2.14184,1.225244 1.20959,0.964595 1.73376,1.578747 2.65349,3.167863 0.48834,0.828883 0.65095,1.051186 0.75199,0.990184 0.43251,-0.300914 2.18065,-2.294344 2.86237,-3.280402 0.60916,-0.860304 0.73764,-1.261615 0.63861,-1.91744 -0.18572,-1.254997 -1.86502,-3.63581 -4.11886,-5.836851 -2.25793,-2.192898 -2.58709,-2.58889 -2.6493,-3.115221 -0.10372,-0.890717 1.41991,-0.599302 3.50921,0.670658 1.45237,0.882919 2.65816,1.93663 4.65267,4.06951 l 0.43876,0.480715 0.13654,-0.417536 c 0.35346,-1.058043 0.85398,-3.124956 0.95314,-3.874491 0.26562,-2.062214 0.0924,-4.645663 -0.47745,-7.1227078 -0.36492,-1.606844 -1.27146,-4.281409 -1.81712,-5.3410002 -0.47651,-0.9544921 -1.43996,-2.25187506 -2.08552,-2.82519366 -0.48316,-0.43200764 -2.28006,-1.41522274 -2.91642,-1.59977234 z"
       id="path8-0-4-8"
       style="fill:#8d3b72;fill-opacity:1;stroke:none;stroke-width:0.00905613"
       inkscape:transform-center-x="40.966404"
       inkscape:transform-center-y="1.8024182" />
    <path
       d="m 27.833491,-9.090898 c -0.519242,0.365203 -1.208537,0.975063 -1.695511,1.478679 -0.814965,0.855557 -2.030191,2.49208 -2.246666,3.010939 -0.302001,0.7566348 -0.324993,1.7329687 -0.07058,2.8090869 0.218957,0.8843446 0.895633,2.5076846 1.215365,2.8837658 0.14269,0.1632113 0.170673,0.1061428 0.270875,-0.566431 0.300092,-1.9955304 1.120186,-3.4459784 3.008408,-5.3774777 1.141913,-1.163126 1.365377,-1.224469 0.29055,-0.08197 -1.257043,1.3380276 -1.766676,2.0498056 -2.186415,3.0922827 -0.677932,1.6358543 -0.90048,3.1669764 -0.574854,3.8584588 0.23259,0.4939185 0.361498,0.4880688 1.120025,-0.044669 1.281994,-0.8889681 1.758371,-1.5082844 2.93168,-3.8162845 0.288313,-0.5526899 0.718177,-1.2707916 0.961121,-1.5936589 0.453666,-0.5976445 0.453666,-0.5976445 1.60737,-1.1299651 0.641832,-0.291261 1.422064,-0.614809 1.735334,-0.718438 0.483372,-0.161791 0.397796,-0.110522 -0.554637,0.359929 -2.066006,0.9948071 -2.526029,1.4857667 -3.733117,3.9084184 -0.396552,0.8121296 -0.893979,1.7595335 -1.093063,2.1056311 -0.453096,0.7619535 -1.339858,1.8378466 -1.645184,1.9816286 -0.125721,0.059207 -0.216577,0.1458602 -0.199657,0.1817927 0.0592,0.1257237 1.521391,1.3901294 2.258541,1.9536518 0.523666,0.3897608 0.756157,0.5106815 0.94793,0.4752349 0.281045,-0.055548 1.110371,-0.5777374 2.551337,-1.6183764 0.830891,-0.5887662 1.136745,-0.754736 2.545081,-1.3521066 2.614875,-1.1106862 3.11939,-1.2275765 1.089328,-0.2496505 -0.960893,0.4524914 -2.220222,1.1332963 -2.806033,1.4969304 -0.941834,0.5861525 -2.266589,1.5940002 -2.721866,2.0717191 -0.154759,0.1606505 -0.07655,0.2335393 2.494833,2.4787377 l 2.649597,2.3180878 2.200165,-1.0360798 c 2.002602,-0.943045 2.271474,-1.047756 3.123626,-1.218593 0.51297,-0.09893 0.927153,-0.151343 0.917655,-0.124927 -0.0056,0.03544 -0.435294,0.193999 -0.945593,0.368488 -1.660357,0.551474 -4.302071,2.0478538 -4.477885,2.5365758 -0.03802,0.105672 7.130146,5.891511 7.325099,5.909419 0.07078,0.01053 0.302718,-0.03284 0.521952,-0.103155 0.760187,-0.226324 2.349317,-0.393162 3.040382,-0.323605 0.806233,0.08115 1.769406,0.285878 2.531837,0.530291 l 0.546326,0.181598 -0.778251,-0.138213 c -1.198278,-0.214712 -2.474194,-0.338001 -2.936993,-0.295611 -0.231402,0.02119 -0.808276,0.194104 -1.287933,0.387068 -0.730589,0.289186 -0.852075,0.357379 -0.765411,0.448212 0.312836,0.291549 5.84718,5.124197 6.064893,5.306937 0.148486,0.105628 0.204502,0.177992 0.129479,0.158463 -0.07027,-0.03274 -2.40218,-1.699489 -5.170043,-3.709539 -2.781063,-2.014803 -5.173734,-3.74071 -5.322225,-3.846341 l -0.284287,-0.184305 -0.135497,1.040293 c -0.44186,3.302103 -0.554925,5.275398 -0.343384,6.097406 0.410397,1.617072 0.406173,1.608092 -0.0057,0.617073 -0.21889,-0.511336 -0.446746,-1.204976 -0.509705,-1.548364 -0.221145,-1.168581 -0.177874,-3.383296 0.119447,-5.827379 0.07749,-0.650906 0.118011,-1.240515 0.09264,-1.294397 -0.05922,-0.125723 -6.541904,-5.0384308 -6.604765,-5.0088288 -0.06287,0.0296 -0.766542,2.1932508 -1.082692,3.3624968 -0.348892,1.239524 -0.785778,3.38725 -0.928647,4.551699 -0.06381,0.446974 -0.147847,2.318826 -0.204418,4.155804 -0.05657,1.836978 -0.109018,3.309938 -0.130684,3.287228 -0.114707,-0.220274 -0.369046,-5.070701 -0.328147,-6.24199 0.09919,-2.515348 0.610326,-5.553834 1.424758,-8.460851 L 32.177255,8.9637342 30.739393,7.7975892 C 29.951026,7.1484933 28.997206,6.3578545 28.605105,6.0377945 L 27.912853,5.4531335 27.578544,5.884856 C 27.043009,6.5649369 26.029105,8.3260872 25.319955,9.7791492 23.505628,13.475209 22.35741,16.791765 22.01941,19.265958 21.885996,20.217495 21.875249,19.542307 22.00276,18.275367 22.342608,14.779932 23.062683,12.674395 25.539259,8.0081722 26.84039,5.5522081 27.047878,5.037572 26.874495,4.6693819 26.764545,4.4358946 25.350441,3.2036988 24.999064,3.0400184 24.89814,2.9887904 24.630338,3.2355602 24.01927,3.9183399 c -0.460556,0.5131169 -1.691186,1.8606464 -2.725336,2.9730287 -1.038907,1.1255896 -2.037663,2.2432456 -2.229908,2.4873776 -0.737272,0.9506388 -2.602496,3.9794468 -3.1902,5.1778258 -0.03747,0.08348 -0.08291,0.126817 -0.0956,0.09987 -0.03808,-0.08082 1.204379,-2.684699 1.905646,-3.99141 C 18.863555,8.4637492 19.92194,7.076637 22.723864,4.0565672 23.553096,3.1613755 23.991981,2.625546 23.898995,2.6144738 23.561922,2.5976588 21.969656,2.8976357 21.02192,3.1683835 19.81058,3.5084113 18.601427,4.1326736 17.583043,4.9523647 17.216472,5.2456704 16.88686,5.4776905 16.860442,5.468188 16.767982,5.4349343 18.39269,3.9457052 18.989053,3.5112673 19.675728,3.0123542 21.221958,2.404916 22.4534,2.154161 23.586576,1.9277474 23.564911,1.9050324 21.899082,1.7459196 19.76357,1.5446652 17.874327,1.6333948 16.658235,1.9866305 c -0.773398,0.221568 -2.039062,0.9821192 -2.472668,1.4825786 -0.40615,0.465556 -0.845418,1.5830654 -1.223291,3.1105303 -0.4127,1.6864988 -1.342906,6.3047626 -1.412983,7.0180126 -0.13327,1.511021 0.124417,3.013489 0.809026,4.676983 1.231234,2.964066 3.633703,5.782534 7.457404,8.776563 1.408253,1.103287 4.157053,2.979675 4.28278,2.920468 0.03591,-0.01693 0.03908,-0.150046 -0.0017,-0.306426 -0.167165,-0.82096 -0.386988,-2.98859 -0.375586,-3.849746 0.0076,-1.078831 0.182292,-1.896183 0.881689,-4.255306 0.250737,-0.842206 0.648699,-2.280391 0.874579,-3.198663 0.671841,-2.697244 1.342978,-4.044626 2.187125,-4.442144 0.493913,-0.232589 0.789796,-0.16346 0.971639,0.222689 0.405978,0.862108 -0.02143,2.983418 -1.537521,7.592333 -1.099086,3.304392 -1.220461,5.819212 -0.418913,8.173719 0.880851,2.5695 2.957454,3.76401 6.943674,4.004404 0.776107,0.04047 3.171476,-0.04524 3.342105,-0.125564 0.04491,-0.02115 -0.209825,-0.329091 -0.556501,-0.692475 -0.85399,-0.88154 -1.63567,-2.005594 -1.863564,-2.699219 -0.32833,-0.953525 -0.420661,-2.500945 -0.387915,-6.532016 0.02215,-2.259619 0.595747,-4.74603 1.249642,-5.361167 0.281523,-0.26424 0.321679,-0.272167 0.563146,-0.155472 0.140547,0.06546 0.280058,0.175326 0.309656,0.238187 0.177618,0.377175 0.350778,1.88653 0.41783,3.753056 0.09733,2.466693 0.144472,2.916277 0.409425,3.921597 0.460629,1.747025 1.249814,3.306412 2.299901,4.534471 0.661128,0.77487 1.164172,1.097537 1.828293,1.179777 1.306047,0.163962 2.79207,-0.338328 5.738595,-1.956278 2.370744,-1.302933 2.814486,-1.478974 5.480731,-2.131093 2.112607,-0.523061 2.941973,-0.858757 3.084514,-1.255038 0.04798,-0.154281 -0.0017,-1.238902 -0.116336,-2.413848 -0.222486,-2.243179 -0.215263,-2.926827 0.02069,-5.780858 0.166946,-1.998668 0.115866,-3.411906 -0.151137,-4.14197 -0.150155,-0.412042 -0.287559,-0.610662 -0.691819,-0.97985 -0.277965,-0.264083 -0.614038,-0.511778 -0.74138,-0.572501 -0.338683,-0.136746 -1.621448,-0.158063 -3.56457,-0.04397 -2.005461,0.121516 -2.999232,0.08479 -3.696137,-0.113677 -0.546853,-0.159407 -0.797358,-0.458369 -0.699719,-0.833496 0.07811,-0.300107 0.938654,-0.639515 2.510304,-1.006582 1.651945,-0.382935 2.536338,-0.415395 4.527649,-0.124279 1.044519,0.144478 1.346192,0.156026 1.362535,0.02764 C 54.335277,10.071595 53.811986,7.2129982 53.428623,5.9562325 53.103951,4.8473824 52.846553,4.4638865 52.215645,4.1026862 51.010905,3.4082685 47.82246,3.2310615 44.397494,3.6699441 40.976757,4.1177955 40.412512,4.131157 39.917933,3.8264428 39.08199,3.3094407 40.369214,2.1985822 42.882171,1.2675518 44.629151,0.6204286 46.355076,0.3013997 49.544987,0.0390469 l 0.711586,-0.049848 -0.265852,-0.4014547 c -0.668594,-1.0236985 -2.103987,-2.8602845 -2.680539,-3.4555467 -1.591195,-1.6315505 -3.928894,-3.2407185 -6.44506,-4.4366985 -1.629003,-0.779892 -4.544008,-1.820968 -5.825769,-2.073166 -1.144405,-0.240082 -2.914805,-0.29509 -3.846715,-0.13054 -0.699985,0.121166 -2.767591,0.996078 -3.359197,1.417305 z"
       id="path8-0-4-8-7-1"
       style="fill:#8d3b72;fill-opacity:1;stroke:none;stroke-width:0.00992615" />
  </g>
</svg>
