<?xml version="1.0" encoding="UTF-8" standalone="no"?>
<svg
   xmlns:dc="http://purl.org/dc/elements/1.1/"
   xmlns:cc="http://creativecommons.org/ns#"
   xmlns:rdf="http://www.w3.org/1999/02/22-rdf-syntax-ns#"
   xmlns:svg="http://www.w3.org/2000/svg"
   xmlns="http://www.w3.org/2000/svg"
   xmlns:sodipodi="http://sodipodi.sourceforge.net/DTD/sodipodi-0.dtd"
   xmlns:inkscape="http://www.inkscape.org/namespaces/inkscape"
   version="1.1"
   id="Layer_1"
   x="0px"
   y="0px"
   width="204.42879"
   height="180.89999"
   viewBox="0 0 204.42879 180.89999"
   xml:space="preserve"
   sodipodi:docname="nzm.svg"
   inkscape:version="1.0.1 (3bc2e813f5, 2020-09-07)"><metadata
   id="metadata1019"><rdf:RDF><cc:Work
       rdf:about=""><dc:format>image/svg+xml</dc:format><dc:type
         rdf:resource="http://purl.org/dc/dcmitype/StillImage" /></cc:Work></rdf:RDF></metadata><defs
   id="defs1017" /><sodipodi:namedview
   pagecolor="#ffffff"
   bordercolor="#666666"
   borderopacity="1"
   objecttolerance="10"
   gridtolerance="10"
   guidetolerance="10"
   inkscape:pageopacity="0"
   inkscape:pageshadow="2"
   inkscape:window-width="1920"
   inkscape:window-height="1016"
   id="namedview1015"
   showgrid="false"
   inkscape:zoom="3.8173077"
   inkscape:cx="72.981931"
   inkscape:cy="97.626842"
   inkscape:window-x="0"
   inkscape:window-y="0"
   inkscape:window-maximized="1"
   inkscape:current-layer="Layer_1" />
<style
   type="text/css"
   id="style972">
	.st0{fill:#FFFFFF;}
</style>
<g
   id="g978"
   transform="translate(-17.835607,-12.2)"
   style="fill:#ffffff;fill-opacity:1;stroke-width:0;stroke-miterlimit:4;stroke-dasharray:none">
	<path
   d="M 203.3,109.1 C 184.4,65.4 150,15.4 121.9,15.4 c -0.6,0 -3.3,0 -3.9,0 -28.1,0 -62.5,50.2 -81.4,93.7 -12.3,26 -18.9,49.7 -14.6,59.2 1.8,4.1 10.8,8.4 24.2,12.2 17.4,5.4 43.4,9.6 71.8,9.8 0.6,0 1.2,0 2,0 0.6,0 1.4,0 2,0 28.5,-0.2 54.4,-4.4 72,-9.8 13.2,-3.8 22.2,-8.1 24,-12 4.2,-9.7 -2.4,-33.4 -14.7,-59.4 z"
   id="path974"
   style="fill:#ffffff;fill-opacity:1;stroke-width:0;stroke-miterlimit:4;stroke-dasharray:none" />
	<path
   class="st0"
   d="m 118.1,15.2 c 0.6,0 3.3,0 3.9,0 28.1,0 62.5,50.2 81.4,93.7 12.3,26 18.9,49.9 14.6,59.3 -1.8,3.9 -10.8,8.3 -24,12 -17.4,5.4 -43.4,9.6 -72,9.8 -0.6,0 -1.4,0 -2,0 -0.6,0 -1.2,0 -2,0 C 89.6,189.8 63.6,185.6 46.2,180.2 32.8,176.4 23.8,172.1 22,168 17.6,158.5 24.3,134.8 36.6,108.8 55.6,65.4 90,15.2 118.1,15.2 m 0,-3 C 88.8,12.2 54,61.8 34,107.8 28.9,118.6 12.8,155 19.4,169.5 c 2.3,4.8 11,9.5 26,13.8 19.8,6.2 46.3,9.8 72.6,9.8 0.5,0 0.8,0 1.2,0 h 0.8 0.8 c 0.5,0 0.9,0 1.2,0 26.4,-0.2 52.9,-3.8 72.9,-9.9 14.9,-4.2 23.7,-8.9 25.8,-13.7 6.6,-14.6 -9.5,-50.9 -14.6,-61.7 -20,-46 -54.7,-95.5 -84.1,-95.5 -0.6,-0.1 -3.3,-0.1 -3.9,-0.1 z"
   id="path976"
   style="fill:#ffffff;fill-opacity:1;stroke-width:0;stroke-miterlimit:4;stroke-dasharray:none" />
</g>
<path
   class="st0"
   d="m 67.064397,130.4 h 3.6 l -0.6,-1.7 c -0.9,-2.4 -1.2,-4.2 -1.2,-4.2 h -0.2 c 0,0 -0.3,1.8 -1.2,4.1 z m 4.7,2.9 h -5.6 l -1.100004,3 h -3.5 l 5.300004,-14.4 h 4.3 l 5.3,14.4 h -1.1 -2.6 z"
   id="path980"
   style="fill:#3399ff;fill-opacity:1" />
<path
   class="st0"
   d="m 50.564393,110.7 c 0.8,1.1 1.2,2 1.2,2 h 0.2 c 0,0 0,-1.2 0,-3 v -5.9 h 3.3 v 14.4 h -3 l -5.1,-6.9 c -0.9,-1.2 -1.4,-2.1 -1.4,-2.1 h -0.2 c 0,0 0.2,1.2 0.2,3.3 v 5.7 h -3.5 v -14.4 h 3.2 z"
   id="path982"
   style="fill:#3399ff;fill-opacity:1" />
<path
   class="st0"
   d="m 79.364397,111.6 c 0.5,2.1 0.8,4.1 0.8,4.1 h 0.2 c 0,0 0.2,-2.1 0.6,-4.1 l 1.7,-8 h 3.3 l -3.3,14.6 h -4.8 l -1.7,-7.2 c -0.5,-2.1 -0.6,-4.1 -0.6,-4.1 h -0.2 c 0,0 -0.2,2 -0.6,4.1 l -1.7,7.2 h -4.7 l -3.100004,-14.4 h 3.600004 l 1.7,8 c 0.5,2.1 0.6,4.1 0.6,4.1 h 0.2 c 0,0 0.2,-2.1 0.6,-4.1 l 1.8,-8 h 4.1 z"
   id="path984"
   style="fill:#3399ff;fill-opacity:1" />
<path
   class="st0"
   d="m 46.664393,131.6 c -0.9,1.2 -1.5,1.8 -1.5,1.8 v 0.2 c 0,0 0.8,-0.2 2,-0.2 h 5.3 v 2.9 h -11.4 v -2.4 l 5.3,-7.4 c 0.9,-1.2 1.5,-1.8 1.5,-1.8 v -0.2 c 0,0 -0.8,0.2 -2,0.2 h -4.7 v -2.9 h 10.8 v 2.4 z"
   id="path986"
   style="fill:#3399ff;fill-opacity:1" />
<path
   id="polygon988"
   style="fill:#3399ff;fill-opacity:1"
   d="m 80.264397,121.8 v 11.6 h 4.4 l -1.2,2.9 h -6.5 v -14.5 z"
   class="st0" />
<path
   class="st0"
   d="m 108.5644,128.8 c 0.8,1.1 1.2,2 1.2,2 h 0.2 c 0,0 0,-1.2 0,-3 v -6 h 3.3 v 14.4 h -3 l -5.1,-6.9 c -0.9,-1.2 -1.4,-2.1 -1.4,-2.1 h -0.2 c 0,0 0.2,1.2 0.2,3.3 v 5.7 h -3.3 v -14.4 h 3.2 z"
   id="path990"
   style="fill:#3399ff;fill-opacity:1" />
<path
   class="st0"
   d="m 119.6644,133.4 c 2.6,0 4.1,-1.1 4.1,-4.4 0,-3.5 -1.5,-4.5 -3.9,-4.5 h -1.7 v 8.9 z m -4.8,2.9 v -14.5 h 5.4 c 4.1,0 7.1,2 7.1,7.1 0,5.4 -3.2,7.4 -7.2,7.4 z"
   id="path992"
   style="fill:#3399ff;fill-opacity:1" />
<path
   class="st0"
   d="m 48.564393,151 -2,-3.3 c -0.8,-1.2 -1.1,-2.3 -1.1,-2.3 h -0.2 c 0,0 0.2,0.8 0.2,2.4 v 6.5 h -3.3 v -14.4 h 3.5 l 2.7,5 c 0.9,1.4 1.1,2.1 1.1,2.1 h 0.2 c 0,0 0.2,-0.8 1.1,-2.1 l 2.7,-5 h 3.3 v 14.4 h -3.3 v -6.5 c 0,-1.7 0.2,-2.4 0.2,-2.4 h -0.2 c 0,0 -0.3,1.1 -1.1,2.3 l -2,3.3 z"
   id="path994"
   style="fill:#3399ff;fill-opacity:1" />
<path
   class="st0"
   d="m 77.864397,151.4 c 2.6,0 4.1,-1.1 4.1,-4.4 0,-3.5 -1.5,-4.5 -3.9,-4.5 h -1.7 v 8.9 z m -4.8,2.9 v -14.4 h 5.4 c 4.1,0 7.1,2 7.1,7.1 0,5.4 -3.2,7.4 -7.2,7.4 h -5.3 z"
   id="path996"
   style="fill:#3399ff;fill-opacity:1" />
<path
   id="polygon998"
   style="fill:#3399ff;fill-opacity:1"
   d="m 96.864397,154.3 h -9.8 v -14.4 h 9.8 v 2.8 h -6.5 v 2.9 h 5.7 v 2.8 h -5.7 v 3 h 6.5 z"
   class="st0" />
<path
   class="st0"
   d="m 62.764393,148.6 h 3.600004 l -0.6,-1.7 c -0.900004,-2.4 -1.200004,-4.2 -1.200004,-4.2 h -0.2 c 0,0 -0.3,1.8 -1.2,4.1 z m 4.500004,2.7 h -5.400004 l -1.1,3 h -2.4 v -3 l 4.2,-11.4 h 4.200004 l 5.3,14.4 h -1.2 -2.6 z"
   id="path1000"
   style="fill:#3399ff;fill-opacity:1" />
<path
   id="polygon1002"
   style="fill:#3399ff;fill-opacity:1"
   d="m 66.164397,118.2 h -9.000004 v -14.5 h 5.7 l 0.8,3 h -3.2 v 2.8 h 3.8 l 0.6,2.7 h -4.4 v 3 h 5.100004 z"
   class="st0" />
<path
   id="polygon1004"
   style="fill:#3399ff;fill-opacity:1"
   d="m 63.764393,124.7 h -6.7 v 3 h 5.5 l -0.9,2.7 h -4.6 v 3 h 4.2 l -0.9,2.9 h -6.6 v -14.5 h 11.1 z"
   class="st0" />
<path
   class="st0"
   d="m 90.564397,130.4 h 3.6 l -0.6,-1.7 c -0.9,-2.4 -1.2,-4.2 -1.2,-4.2 h -0.2 c 0,0 -0.3,1.8 -1.2,4.1 z m 4.6,2.9 h -5.6 l -1.1,3 h -3.5 l 5.3,-14.4 h 4.2 l 4.2,11.4 v 3 h -2.6 z"
   id="path1006"
   style="fill:#3399ff;fill-opacity:1" />
<path
   class="st0"
   d="m 58.664393,93.600003 c 0,0 1.1,-31.200003 14.600004,-38.800003 0,0 18.6,-10.8 39.200003,-10.4 0,0 26.6,-0.8 37.6,18.9 0,0 13.5,20.7 -36.1,42.4 h 13.1 c 0,0 -2,-21.3 -21.9,-36.7 0,0 -12.300003,-10.4 -21.800003,-10.1 0.1,0 -19.100004,-2 -24.700004,34.700003"
   id="path1008"
   style="fill:#3399ff;fill-opacity:1" />
<g
   id="g1012"
   transform="translate(-17.835607,-12.2)"
   style="fill:#3399ff;fill-opacity:1">
	<path
   class="st0"
   d="m 210.7,159.3 c 0,1.1 -0.2,2.1 -0.6,3 -0.5,0.9 -0.9,1.7 -1.5,2.3 -0.6,0.6 -1.5,1.2 -2.3,1.5 -0.9,0.3 -1.8,0.6 -2.7,0.6 -1.1,0 -2.1,-0.2 -2.9,-0.6 -0.9,-0.3 -1.7,-0.9 -2.3,-1.5 -0.6,-0.6 -1.2,-1.5 -1.5,-2.4 -0.3,-0.9 -0.6,-1.8 -0.6,-2.9 0,-1.1 0.2,-2.1 0.6,-3 0.4,-0.9 0.9,-1.7 1.5,-2.3 0.6,-0.6 1.5,-1.2 2.3,-1.5 0.9,-0.3 1.8,-0.6 2.7,-0.6 0.9,0 1.8,0.2 2.7,0.6 0.9,0.3 1.7,0.9 2.3,1.5 0.6,0.6 1.2,1.4 1.5,2.3 0.6,0.9 0.8,1.9 0.8,3 z m -1.7,0 c 0,-0.9 -0.2,-1.7 -0.5,-2.4 -0.3,-0.8 -0.8,-1.4 -1.2,-2 -0.4,-0.6 -1.1,-0.9 -1.8,-1.2 -0.8,-0.3 -1.4,-0.5 -2.3,-0.5 -0.8,0 -1.5,0.2 -2.3,0.5 -0.8,0.3 -1.4,0.8 -1.8,1.2 -0.5,0.5 -0.9,1.2 -1.2,2 -0.3,0.8 -0.5,1.5 -0.5,2.4 0,0.9 0.2,1.7 0.5,2.4 0.3,0.8 0.6,1.4 1.2,2 0.5,0.6 1.1,1.1 1.8,1.4 0.8,0.3 1.5,0.5 2.4,0.5 0.8,0 1.5,-0.2 2.3,-0.5 0.8,-0.3 1.4,-0.8 1.8,-1.2 0.5,-0.6 0.9,-1.2 1.2,-2 0.3,-1 0.4,-1.7 0.4,-2.6 z m -7,4.2 h -1.4 v -8.1 h 3.2 c 1.1,0 1.7,0.2 2.3,0.6 0.5,0.3 0.8,0.9 0.8,1.8 0,0.8 -0.2,1.2 -0.6,1.7 -0.5,0.3 -0.9,0.6 -1.5,0.6 l 2.3,3.6 h -1.5 l -2.1,-3.5 h -1.2 v 3.3 z m 1.5,-4.7 c 0.3,0 0.5,0 0.8,0 0.3,0 0.5,-0.2 0.6,-0.2 0.2,-0.2 0.3,-0.2 0.5,-0.5 0.2,-0.2 0.2,-0.5 0.2,-0.8 0,-0.3 0,-0.5 -0.2,-0.6 -0.2,-0.2 -0.3,-0.3 -0.5,-0.3 -0.2,-0.2 -0.3,-0.2 -0.6,-0.2 -0.2,0 -0.5,0 -0.6,0 H 202 v 2.4 h 1.5 z"
   id="path1010"
   style="fill:#3399ff;fill-opacity:1" />
</g>
</svg>
