<?xml version="1.0" encoding="UTF-8" standalone="no"?>
<svg
   xmlns:dc="http://purl.org/dc/elements/1.1/"
   xmlns:cc="http://creativecommons.org/ns#"
   xmlns:rdf="http://www.w3.org/1999/02/22-rdf-syntax-ns#"
   xmlns:svg="http://www.w3.org/2000/svg"
   xmlns="http://www.w3.org/2000/svg"
   xmlns:sodipodi="http://sodipodi.sourceforge.net/DTD/sodipodi-0.dtd"
   xmlns:inkscape="http://www.inkscape.org/namespaces/inkscape"
   version="1.1"
   id="svg1224"
   width="853.33331"
   height="853.33331"
   viewBox="0 0 853.33331 853.33331"
   sodipodi:docname="shoplocal.svg"
   inkscape:version="1.0.1 (3bc2e813f5, 2020-09-07)">
  <metadata
     id="metadata1230">
    <rdf:RDF>
      <cc:Work
         rdf:about="">
        <dc:format>image/svg+xml</dc:format>
        <dc:type
           rdf:resource="http://purl.org/dc/dcmitype/StillImage" />
        <dc:title></dc:title>
      </cc:Work>
    </rdf:RDF>
  </metadata>
  <defs
     id="defs1228">
    <clipPath
       clipPathUnits="userSpaceOnUse"
       id="clipPath1297">
      <path
         id="path1299"
         style="fill:#ff0000;fill-opacity:1;fill-rule:nonzero;stroke:none"
         d="M 99.984375,91.205078 V 779.91602 H 781.31836 V 91.205078 Z M 277.66406,109.51562 c 0.56601,-0.0266 1.15829,0.50632 1.21094,1.62696 2.7e-4,0.006 9.5e-4,0.04 0.002,0.0547 0.092,0.0517 0.17939,0.10941 0.26953,0.16406 0.0252,-0.0198 0.0511,-0.0387 0.0762,-0.0586 0.43802,-0.34692 0.83631,-0.74202 1.2539,-1.11328 v -0.002 c 1.67687,-1.49081 3.18273,0.2045 1.50586,1.69531 -0.12068,0.10729 -0.24256,0.21269 -0.36133,0.32227 0.0543,0.0132 0.10761,0.0304 0.16211,0.043 2.18262,0.40942 4.20776,1.39179 6.38868,1.83203 2.97879,0.61973 5.91047,1.41977 8.80078,2.37304 2.21981,0.69366 4.45672,1.4118 6.57617,2.37891 0.59509,0.27154 1.26436,0.82007 1.75976,1.18555 0.72363,0.81146 1.2492,1.34157 1.35547,2.45898 0.0221,0.23256 -0.18147,0.72768 -0.23437,0.88477 -0.35934,0.62602 -0.67272,1.28189 -1.15821,1.82617 -0.35563,0.36536 -0.65197,0.79178 -1.13281,1.01172 -0.28955,0.12462 -0.52031,0.31174 -0.7832,0.48437 -0.59759,0.39241 -1.21783,0.73463 -1.85938,1.05079 -1.20214,0.60778 -2.36382,1.29378 -3.59961,1.83203 -0.88829,0.3925 -1.78877,0.74402 -2.67578,1.13671 -0.36774,0.0198 -0.69627,0.28153 -1.03906,0.39258 -0.28884,0.13668 -0.58555,0.18297 -0.87109,0.29688 -0.70736,0.32435 -1.46282,0.49934 -2.18164,0.79687 -0.83238,0.40588 -1.69299,0.74232 -2.51953,1.15821 -0.52968,0.16694 -1.08327,0.29286 -1.57813,0.54882 -0.46085,0.30398 -0.40467,0.28956 -1.00781,0.56641 -0.14969,0.0687 -0.31969,0.0886 -0.47071,0.1543 -0.071,0.0309 -0.87126,0.43636 -0.88476,0.44336 -0.87329,0.47027 -1.73486,0.95347 -2.58594,1.46289 -0.85139,0.32558 -1.52495,0.97969 -2.42187,1.19531 -0.0298,-0.007 -0.0546,-0.0432 -0.084,-0.0352 -0.39807,0.11258 -0.64403,0.53174 -1.04883,0.63477 -0.0974,0.0399 -0.46628,0.18787 -0.55468,0.23047 -0.22107,0.10666 -0.46139,0.34062 -0.70118,0.39062 -0.0604,0.0126 -0.12262,0.0126 -0.18359,0.0215 -0.041,0.0322 -0.0258,0.008 -0.10742,0.0996 -0.83725,0.98584 -1.70616,1.95135 -2.65625,2.83007 -0.53932,0.37776 -0.6154,0.45841 -1.30274,0.77149 -0.52737,0.24022 -1.12486,0.31652 -1.63867,0.59375 -1.06794,0.71221 -2.01368,1.61297 -3.1914,2.14844 -0.36174,0.13985 -0.80818,0.30817 -1.15821,0.46093 -0.71612,0.31253 -1.34324,0.79363 -2.0332,1.1543 -0.68291,0.33357 -1.39161,0.67001 -2.14844,0.78711 -0.18304,0.10817 -0.35824,0.27639 -0.54687,0.36719 -0.0163,0.008 -0.0293,-0.0451 -0.043,-0.0332 -0.72335,0.6253 0.34671,0.13263 -1.22461,0.59376 0.27236,-0.002 0.25671,0.002 0.23047,0 -0.18405,0.0679 -0.36905,0.12861 -0.56055,0.17187 -0.12568,0.14153 0.32843,-0.22429 -0.51758,0.41602 -0.9083,0.42205 1.2431,-0.54004 -1.30859,0.14257 -0.22902,0.0609 0.47212,0.0749 0.70898,0.0645 0.1066,-0.005 0.41043,-0.25771 0.084,-0.0215 -0.75586,0.8211 -1.48004,1.67443 -2.46094,2.24414 -0.91644,0.48522 -1.85206,0.93684 -2.67969,1.56836 -1.34996,0.79627 -2.72259,1.55805 -4.1914,2.11524 -0.60364,0.27277 -1.01482,0.47302 -1.66797,0.69336 -0.75836,0.25581 -1.57688,0.2099 -2.36328,0.2207 -0.76119,0.0642 -1.49575,-0.0104 -2.23243,-0.22461 -0.19461,-0.12054 -0.73903,-0.44351 -0.85156,-0.64844 -0.122,-0.22216 -0.15918,-0.48186 -0.23828,-0.72265 0.029,-0.10157 0.0569,-0.20362 0.0879,-0.30469 -0.004,0.12095 0.002,0.24208 0.004,0.36328 0.004,0.16922 0.85359,1.14891 -0.004,-0.36719 v -0.002 c -0.0384,-0.0679 -0.0344,-0.072 -0.0801,-0.15039 0.1066,-0.83409 0.46552,-1.61009 0.54102,-2.45313 0.18818,-1.04051 0.41833,-2.06596 0.67187,-3.09179 0.23497,-1.23676 0.31689,-2.54638 0.93164,-3.67188 0.26493,-0.51965 0.5492,-1.04865 0.75977,-1.59375 0.106,-0.27439 0.10922,-0.58288 0.26953,-0.83984 0.0508,-0.13121 0.11312,-0.25605 0.16992,-0.38477 0.5708,-1.13168 1.32437,-2.18186 1.54493,-3.45898 0.32446,-1.04852 0.53006,-1.58687 1.00195,-2.57422 0.18017,-0.37698 0.6655,-1.29052 0.80664,-1.66992 0.0671,-0.18023 0.0846,-0.37491 0.12695,-0.5625 0.0949,-0.28871 0.17276,-0.58286 0.28516,-0.86524 0.40555,-1.0189 1.19482,-1.80394 1.85156,-2.65625 0.58116,-0.75037 1.18093,-1.48695 1.54883,-2.37304 0.2761,-0.55266 0.5333,-1.11598 0.90039,-1.61719 0.47224,-0.64477 1.13052,-1.13364 1.80469,-1.54688 0.008,-0.006 0.73456,-0.47086 0.93164,-0.66992 0.78545,-0.79332 1.29443,-1.8404 2.20703,-2.51172 0.62094,-0.51362 1.30636,-0.99828 1.88867,-1.55664 0.72853,-0.69856 0.16269,-0.42705 1.25977,-1.11719 0.18353,-0.11544 0.39728,-0.17627 0.5957,-0.26367 0.38603,-0.14197 0.76812,-0.29534 1.1582,-0.42578 1.96336,-0.65656 0.21949,0.0459 2.61914,-0.83594 0.33872,-0.12448 0.66275,-0.28453 0.99805,-0.41796 1.82145,-0.72486 1.69471,-0.66043 3.45898,-1.27344 0.67053,-0.25666 1.35109,-0.48836 2.01172,-0.76953 0.30825,-0.13119 0.59864,-0.30063 0.89063,-0.46485 0.99786,-0.56119 1.97057,-1.16679 2.91797,-1.81054 -0.57548,-0.44561 -0.50927,-0.97612 -0.53711,-1.56836 -0.0527,-1.12064 0.48672,-1.70582 1.05273,-1.73243 z m -34.58789,44.92774 c 0.0335,-0.10956 0.0721,-0.21806 0.0957,-0.33008 0.0172,-0.082 -0.0868,0.14932 -0.0977,0.23242 -0.004,0.0323 0.003,0.0652 0.002,0.0977 z m 36.3711,-40.47461 c -1.305,0.94969 -2.66249,1.81823 -4.07032,2.61328 -0.3229,0.18235 -0.64582,0.36874 -0.98633,0.51563 -0.73791,0.31834 -1.49739,0.58484 -2.24609,0.87695 -0.56543,0.19695 -1.13342,0.38499 -1.69531,0.5918 -0.59102,0.21752 -1.17672,0.44842 -1.76172,0.68164 -0.31515,0.12564 -0.62097,0.27757 -0.93945,0.39453 -1.28065,0.47031 -2.59129,0.8212 -3.86914,1.29687 -0.15341,0.0691 -0.31944,0.11499 -0.45899,0.20899 -0.43608,0.29376 -0.16399,0.2333 -0.45508,0.51367 -0.68317,0.65802 -1.44033,1.23195 -2.16992,1.83594 -0.13201,0.11213 -0.27923,0.20844 -0.39648,0.33593 -0.57097,0.62085 -0.47563,0.66647 -0.97852,1.28321 -0.18842,0.23108 -0.38895,0.45116 -0.5957,0.66601 -0.39968,0.41533 -0.8256,0.66114 -1.31445,1.00782 -1.19452,0.66856 -1.41599,1.19584 -1.97657,2.31836 -0.4337,1.01723 -1.11412,1.88145 -1.78515,2.74804 -0.54392,0.7538 -1.28884,1.39301 -1.61719,2.28711 -0.0619,0.16869 -0.0962,0.34644 -0.14453,0.51953 -0.0257,0.12446 -0.0338,0.25395 -0.0781,0.37305 -0.16372,0.43991 -0.35164,0.86913 -0.54492,1.29687 -0.34299,0.75907 -0.79041,1.48729 -1.06055,2.2793 -0.0947,0.27753 -0.1669,0.56254 -0.25,0.84375 -0.24136,1.40644 -1.06739,2.56349 -1.68554,3.8125 -0.0402,0.0931 -0.0837,0.1843 -0.11914,0.2793 -0.0649,0.17409 -0.0952,0.3618 -0.16211,0.53515 -0.26819,0.69531 -0.58729,1.35608 -0.92383,2.01954 -0.063,0.11609 -0.14265,0.22413 -0.18945,0.34765 -0.29876,0.7878 -0.37989,1.87455 -0.53516,2.71289 -0.25029,1.02222 -0.48089,2.04201 -0.66797,3.07813 -0.0409,0.23152 -0.0761,0.463 -0.12305,0.69336 -0.0787,0.3856 -0.1915,0.75396 -0.29492,1.1289 0.24135,0.0362 0.44,0.0567 0.76172,0.0274 0.67195,-0.048 1.3827,0.0757 2.03125,-0.16797 0.33643,-0.12641 0.92594,-0.39986 1.26172,-0.55274 1.39562,-0.52346 2.69443,-1.24597 3.97461,-2.00195 0.8568,-0.64786 1.82546,-1.12022 2.77148,-1.62109 0.73292,-0.47031 1.27158,-1.14294 1.85352,-1.77539 0.29312,-0.23808 0.65579,-0.63129 1.07422,-0.65039 0.26117,-0.0119 0.51626,0.1115 0.77734,0.0976 0.24314,-0.0128 -0.48446,-0.0511 -0.72265,-0.10156 -0.0256,-0.005 0.0453,-0.0246 0.0684,-0.0371 -0.0477,-0.0213 -0.0729,-0.0172 0.002,-0.0762 0.36233,-0.28563 0.68014,-0.45383 1.13086,-0.51953 -0.0191,-3.3e-4 -0.0646,0.0172 -0.0566,0 0.0108,-0.0227 0.0469,-0.0164 0.0703,-0.0254 0.0551,-0.0202 0.11093,-0.0402 0.16601,-0.0605 0.11091,-0.0409 0.18262,-0.0667 0.26758,-0.0859 0.30039,-0.27463 0.62509,-0.56296 0.79883,-0.58008 0.0349,-0.0223 0.0613,-0.0461 0.0977,-0.0684 0.79231,-0.26104 1.57232,-0.51206 2.32226,-0.88085 1.05534,-0.70896 2.18999,-1.23542 3.3711,-1.69336 0.98183,-0.53816 1.81866,-1.29688 2.74804,-1.91993 0.65507,-0.44824 1.47166,-0.53149 2.17774,-0.85547 0.26776,-0.12283 0.47396,-0.29176 0.70312,-0.46484 0.78179,-0.7891 1.53129,-1.61003 2.25,-2.45703 0.36855,-0.42284 0.63326,-0.6252 1.16602,-0.73633 -0.0483,-0.0146 0.0424,-0.0528 0.25391,-0.17383 0.31808,-0.18203 0.65404,-0.32313 0.99218,-0.46289 0.52073,-0.44299 1.11552,-0.67566 1.79297,-0.75976 -0.0201,-0.0121 -0.0545,-0.0144 -0.0605,-0.0371 -0.005,-0.0182 0.0233,-0.0289 0.0391,-0.0391 0.15749,-0.10154 0.31902,-0.19653 0.47851,-0.29493 0.4286,-0.26434 0.86546,-0.48426 1.33203,-0.67382 0.75232,-0.50405 1.55164,-0.92282 2.34766,-1.35157 0.48631,-0.25323 0.96867,-0.50375 1.48633,-0.6875 0.10753,-0.0382 0.22424,-0.0485 0.32812,-0.0957 0.13525,-0.0614 0.2374,-0.18081 0.35938,-0.26563 0.6597,-0.41632 1.42415,-0.59807 2.16015,-0.83007 0.7089,-0.39828 1.47695,-0.67554 2.20704,-1.03321 0.71205,-0.35413 1.50811,-0.47826 2.22265,-0.8164 0.28078,-0.15816 0.59485,-0.19843 0.90235,-0.26953 0.0495,-0.0114 -0.10064,0.014 -0.14844,0.0312 0.55046,-0.26375 1.11016,-0.50616 1.71094,-0.625 0.66327,-0.42108 1.43885,-0.66014 2.1582,-0.97852 1.19826,-0.52571 2.32698,-1.19273 3.49414,-1.7832 0.9684,-0.39568 1.75763,-1.09692 2.6875,-1.55664 0.018,0.005 0.2539,-0.30652 0.48242,-0.54297 0.29887,-0.39571 0.51867,-0.84044 0.75977,-1.27149 -0.0222,0.0105 -0.0198,0.0164 -0.0547,0.0293 -0.0367,0.0136 -0.0353,-0.0717 -0.0605,-0.10156 -0.21398,-0.2536 -0.44585,-0.48984 -0.66797,-0.73633 -0.24418,-0.15824 -0.90885,-0.60831 -1.20507,-0.73828 -1.98002,-0.86873 -4.05791,-1.53263 -6.11914,-2.17578 -2.82012,-0.93067 -5.67917,-1.7144 -8.58594,-2.31836 -1.48275,-0.3764 -2.95356,-0.79171 -4.40039,-1.28906 -0.23641,-0.0813 -0.46404,-0.18872 -0.70313,-0.26172 -0.48942,-0.14946 -0.76466,-0.18643 -1.23242,-0.26953 -0.64972,-0.14139 -1.28696,-0.33405 -1.92773,-0.50977 z m -17.86524,31.96484 c -0.28389,0.18106 -0.53591,0.37475 -0.7793,0.57813 0.0611,-0.0128 0.12179,-0.0244 0.23243,-0.0332 0.1182,-0.009 0.23509,0.0116 0.35351,0.0176 0.28206,-0.44016 0.29655,-0.57266 0.19336,-0.5625 z m -0.7793,0.57813 c -0.005,0.001 -0.0146,7.8e-4 -0.0195,0.002 -0.15959,0.14591 -0.45517,0.39959 -0.38867,0.3418 0.14436,-0.12546 0.27516,-0.23257 0.4082,-0.34375 z m 43.66016,-24.27734 c -0.0891,0.003 -0.0484,0.002 -0.006,0.01 0.002,-0.003 0.004,-0.006 0.006,-0.01 z m -18.00977,4.77148 c 0.75112,-0.0393 1.33878,0.81213 0.74805,2.08398 -0.30666,0.66025 -0.36881,0.54096 -0.79101,1.0918 -0.92757,0.98539 -2.01814,1.782 -3.12696,2.55274 -0.87314,0.54387 -1.80846,1.05942 -2.77539,1.41601 -0.0616,0.0227 -0.12866,0.022 -0.19336,0.0332 -1.13692,0.35922 -2.00713,1.25115 -3.03906,1.81836 -0.30438,0.15512 -0.60543,0.31432 -0.91211,0.46485 -0.14277,0.0701 -0.30748,0.0846 -0.45703,0.13867 -1.17803,0.42622 -2.32022,0.94691 -3.47852,1.42187 -2.076,0.85125 -2.9563,-1.23726 -0.88085,-2.08984 1.17975,-0.48464 2.34507,-1.01232 3.54492,-1.44727 0.17047,-0.0618 0.34213,-0.11917 0.51562,-0.17187 0.0866,-0.0263 0.18347,-0.0225 0.26367,-0.0645 0.10333,-0.0542 0.18399,-0.1443 0.27539,-0.2168 0.91567,-0.51376 1.70288,-1.26026 2.66211,-1.70117 0.2384,-0.10958 0.48963,-0.18871 0.73438,-0.28321 0.1581,-0.0383 0.31969,-0.0598 0.47265,-0.11523 0.0927,-0.0336 0.61674,-0.32931 0.71094,-0.37891 0.46083,-0.24258 0.90639,-0.4541 1.3418,-0.73828 0.9346,-0.67802 1.90049,-1.32595 2.68359,-2.18164 0.0498,-0.0605 0.0977,-0.12184 0.14844,-0.18164 0.006,-0.007 0.12905,-0.14746 0.21094,-0.23828 0.0122,-0.0287 0.0119,-0.0378 0.0312,-0.0801 0.35012,-0.7651 0.85988,-1.1092 1.31054,-1.13281 z m -9.58789,11.98047 c -0.179,0.018 -0.35658,0.0418 -0.53515,0.0625 0.078,0.0101 0.15787,0.0475 0.23437,0.0293 0.13455,-0.0321 0.2112,-0.0618 0.30078,-0.0918 z m -15.44335,9.69336 c 0.0447,-0.008 -0.0863,0.0312 -0.12891,0.0469 -0.005,0.002 -0.0104,0.004 -0.0156,0.006 -0.0291,-0.004 -0.0568,-0.0165 0.14454,-0.0527 z m -0.54102,0.0547 c -0.10784,0.0993 -0.12376,0.11931 -0.15625,0.15429 0.0234,-0.0165 0.0184,-0.01 0.0723,-0.0508 0.0354,-0.0267 0.11656,-0.13363 0.084,-0.10351 z" />
    </clipPath>
  </defs>
  <sodipodi:namedview
     pagecolor="#ffffff"
     bordercolor="#666666"
     borderopacity="1"
     objecttolerance="10"
     gridtolerance="10"
     guidetolerance="10"
     inkscape:pageopacity="0"
     inkscape:pageshadow="2"
     inkscape:window-width="1920"
     inkscape:window-height="1016"
     id="namedview1226"
     showgrid="false"
     inkscape:zoom="0.9065834"
     inkscape:cx="302.91437"
     inkscape:cy="470.09934"
     inkscape:window-x="0"
     inkscape:window-y="0"
     inkscape:window-maximized="1"
     inkscape:current-layer="g1232" />
  <g
     inkscape:groupmode="layer"
     inkscape:label="Image"
     id="g1232">
    <ellipse
       style="fill:#ffffff;fill-opacity:0.99959588;stroke:#2caa3b;stroke-width:0"
       id="path1448"
       cx="426.66666"
       cy="426.66666"
       rx="349.92731"
       ry="349.45547" />
    <path
       id="path1259"
       clip-path="url(#clipPath1297)"
       style="fill:#3698fb;stroke:none;stroke-width:1.33333"
       d="m 438.63867,91.601562 c -0.11196,0.03082 -0.22547,0.05308 -0.33594,0.0918 0.14482,0.02607 0.28152,0.05303 0.48633,0.07813 0.0573,-0.0058 0.1146,-0.01185 0.17188,-0.01758 -0.0528,-0.03907 -0.17926,-0.09699 -0.32227,-0.152344 z m 61.34571,9.589848 v 0.0566 l 0.43359,0.0293 c -0.14142,-0.029 -0.2994,-0.05 -0.43359,-0.0859 z m -58.08594,1.12695 c -4.6741,-0.0266 -9.31933,0.21935 -13.91406,0.83008 -23.43334,3.11466 -47.61002,4.1564 -70.66602,9.63867 -10.144,2.412 -19.51135,7.27112 -29.33398,10.66992 -14.87467,5.1464 -29.73467,9.31232 -44,16.16992 -14.29868,6.87347 -26.05002,16.93436 -38.66602,26.31836 -7.06533,5.25466 -14.74223,9.64813 -21.21289,15.68946 -8.04,7.50667 -14.39399,16.81186 -21.83399,24.89453 -4.28933,4.65733 -9.43548,8.29729 -13.27148,13.39062 -8.424,11.18534 -14.69222,24.1321 -22.10156,35.9961 -4.03866,6.468 -9.33353,12.04601 -13.13086,18.66601 -16.09454,28.05866 -25.81822,58.14599 -33.61328,89.33399 -3.5636,14.25866 -7.81139,29.35866 -9.27539,44 -2.116,21.164 0.87791,42.93734 2.32031,64 2.37907,34.74134 4.77091,69.89534 18.05664,102.66601 3.31627,8.18 8.55018,15.06469 12.89844,22.66602 10.0996,17.65467 20.07673,33.59398 33.05273,49.33398 9.51734,11.544 18.43076,24.13316 29.49609,34.28516 12.95868,11.88666 28.26191,20.69178 42.61524,30.67578 11.00533,7.65466 21.36865,16.54536 33.33398,22.69336 11.09334,5.7 23.09135,8.07964 34.66602,12.43164 7.62666,2.868 14.85802,6.81131 22.66602,9.19531 12.70665,3.87866 25.69596,4.98127 38.66796,7.33594 33.94,6.16133 69.49866,8.9865 104,4.33984 9.88666,-1.332 19.50115,-4.0616 29.33204,-5.71094 8.41331,-1.41066 17.12865,-1.81476 25.33398,-4.27343 25.31467,-7.58533 48.61867,-18.61728 72,-30.47461 11.07733,-5.616 22.88732,-8.60587 33.33398,-15.64453 35.268,-23.76 67.37056,-60.89283 87.58789,-98.1875 10.988,-20.26666 17.70132,-42.06801 24.44532,-64 8.044,-26.16134 16.04138,-53.79603 17.24804,-81.33203 1.05867,-24.17333 -2.75735,-49.29132 -5.05468,-73.33399 -2.30667,-24.13066 -3.02133,-48.81866 -11,-72 -4.4,-12.78666 -12.18113,-23.98534 -18.23047,-36 -7.92,-15.728 -13.43332,-33.54134 -23.58399,-48 -8.39733,-11.96134 -20.03053,-21.424 -30.0332,-32 -18.14533,-19.18533 -37.64821,-38.85689 -60.04687,-53.21289 -9.91334,-6.35334 -21.30535,-10.37465 -32,-15.19531 -16.85467,-7.59827 -34.18134,-16.63723 -52,-21.6875 -12.21601,-3.4624 -24.79738,-4.64636 -37.33204,-6.2793 -19.69175,-2.56533 -40.49948,-7.77341 -60.7539,-7.88867 z m -121.91406,14.92969 -1.66211,0.16601 c -0.40895,0.12488 -0.81339,0.26243 -1.21485,0.41016 z m -38.54883,15.16211 c -0.66528,0.21052 -1.32319,0.44613 -1.99219,0.64257 -0.0233,0.10907 0.0352,0.17256 0.14062,0.20899 0.61794,-0.27837 1.24084,-0.55889 1.85157,-0.85156 z m 350.23828,15.2832 c -0.0169,0.006 -0.0355,0.0102 -0.0527,0.0156 l 0.36329,0.20704 z m 1.64453,0.22266 17.33398,14.66601 z m -175.92969,3.90625 c 12.58905,-0.15411 26.22316,3.83825 38.59571,4.09375 l -2.13672,14.6289 -14.21289,6.7832 -2.36915,21.25391 -2.61328,26.66602 c -3.992,0 -11.72831,1.44223 -14.95898,-1.3711 -3.008,-2.61867 -1.20503,-9.82826 -0.92774,-13.29492 0.74667,-9.34134 2.12761,-18.63467 2.59961,-28 0.164,-3.27067 1.20441,-7.30994 -0.40625,-10.36328 -2.992,-5.672 -11.24696,-2.21053 -14.04296,-7.39453 -2.38267,-4.416 -0.0969,-12.01687 5.14843,-12.6582 1.749,-0.21417 3.52579,-0.32174 5.32422,-0.34375 z m -49.40429,3.36718 c 16.504,-0.31733 26.50287,14.4946 23.54687,30.0586 -0.87467,4.604 -5.84594,9.86014 -5.08594,14.52148 0.63733,3.912 5.06296,4.53441 7.62696,6.70508 3.19734,2.70666 5.06375,10.51833 2.98242,14.34766 -1.784,3.284 -6.04632,2.90254 -9.07031,1.94921 -5.81735,-1.83333 -14.72338,-11.9385 -21.08204,-9.20117 -5.416,2.33067 -1.22909,8.62389 -2.62109,12.58789 -1.23867,3.52933 -7.74477,3.96704 -10.88477,3.84571 -4.44667,-0.172 -5.62409,-3.56036 -6.35742,-7.42969 -1.58934,-8.39467 -2.51834,-16.92483 -4.125,-25.32617 -1.68667,-8.81866 -2.51298,-17.78869 -3.93164,-26.66602 -0.48267,-3.01867 -1.69025,-7.28061 0.59375,-9.86328 1.97467,-2.23466 5.69218,-2.2618 8.40821,-2.70313 6.55599,-1.06397 13.33999,-2.69817 20,-2.82617 z m -166.32813,2.0918 -1.67187,1.30078 1.7207,-1.26367 c -0.0161,-0.0126 -0.0327,-0.0245 -0.0488,-0.0371 z m 163.66602,14.14453 c -9.47334,0.348 -8.77483,7.99296 -7.4375,15.1543 0.69334,3.712 1.41809,8.9414 6.24609,8.9414 13.23466,0 16.55807,-24.66237 1.19141,-24.0957 z m 147.99609,3.15625 c 4.52134,0.46267 13.40691,1.98688 15.01758,7.18555 1.044,3.37066 -1.86246,7.32311 -3.31446,10.14844 -4.09067,7.96267 -7.56334,16.16133 -11.88867,24 -1.856,3.364 -4.98767,7.90673 -4.625,11.9414 1,11.10666 22.10913,7.31307 15.31446,21.31446 -0.548,1.12799 -1.30219,2.39995 -2.24219,3.25195 -6.04934,5.488 -22.53453,-6.44897 -28.25586,-9.43164 -2.72534,-1.42133 -7.12107,-2.78538 -8.06641,-6.10938 -0.86266,-3.03334 1.14297,-6.34812 2.4043,-8.96679 3.23067,-6.712 6.65433,-13.33733 9.98633,-20 5.45066,-10.90133 11.78592,-21.75799 15.66992,-33.33399 z m -219.0625,4.03906 c 32.71803,0.0224 49.77366,49.09561 20.39453,67.78321 -4.47867,2.848 -9.46334,4.01437 -14.66601,4.70508 -42.59866,5.66133 -54.70202,-65.69362 -10.66602,-72.12696 1.68119,-0.24562 3.32842,-0.36243 4.9375,-0.36133 z m -1.39258,17.34375 c -1.57724,0.0324 -3.20628,0.29323 -4.87305,0.82032 -21.93867,6.93733 -6.85804,43.83911 14.64063,36.92578 20.19275,-6.49246 8.84382,-38.12821 -9.76758,-37.7461 z m 277.89453,21.22266 c 9.78911,0.11015 19.41254,3.61381 26.31446,10.85156 13.71067,14.37733 14.46526,42.65073 -2.44141,55.02539 -5.3,3.88 -12.18254,6.18785 -18.64648,7.11719 -14.00667,2.01333 -29.50972,-4.43625 -36.62305,-16.93359 -12.05733,-21.18533 -0.47162,-51.891 24.62305,-55.59766 2.24522,-0.33175 4.51441,-0.48831 6.77343,-0.46289 z m -343.28125,6.85547 c 17.2891,-0.16644 31.69976,17.27906 25.69727,34.53906 -2.65067,7.624 -11.82242,12.28447 -13.70508,19.61914 -1.89067,7.36 11.00225,10.22878 6.40625,18.80078 -0.66267,1.23333 -1.90525,2.23164 -2.91992,3.1543 -1.19733,1.08667 -2.87206,2.12219 -4.52539,2.24219 -3.584,0.26133 -6.15042,-2.85299 -8.34375,-5.20899 -4.62,-4.96 -9.30691,-9.81276 -14.10156,-14.60742 -6.22,-6.22 -12.5015,-12.38601 -18.66016,-18.66601 -2.53067,-2.58 -6.19515,-5.57399 -6.89649,-9.33399 -0.89466,-4.79467 3.95949,-8.952 6.91016,-12 7.60533,-7.852 15.28381,-16.59095 26.64649,-18.26562 1.173,-0.17292 2.33958,-0.26235 3.49218,-0.27344 z m 343.35742,10.19141 c -23.81019,0.16721 -24.75081,37.80598 -1.51562,39.52929 24.85333,1.84267 26.68462,-38.49048 2.66602,-39.50781 -0.38946,-0.0165 -0.77246,-0.0241 -1.1504,-0.0215 z m -344.10351,4.875 c -0.86779,0.0298 -1.78414,0.16076 -2.74609,0.40234 -4.77067,1.19733 -10.87758,5.83093 -11.37891,11.07226 -0.61467,6.428 8.96824,15.37085 15.37891,13.71485 14,-3.61625 11.76293,-25.63613 -1.25391,-25.18945 z m 170.89648,14.0039 c 11.97014,-0.12369 23.82025,2.19869 35.69141,3.75977 41.78934,5.496 76.03625,25.54022 104.37891,56.32422 4.204,4.56533 9.07881,8.25062 12.66015,13.39062 5.16133,7.40533 8.03506,15.98748 12.03906,23.99414 5.09466,10.18934 11.016,19.43402 13.72266,30.66602 2.73334,11.34133 2.98914,23.13063 4.0918,34.66797 1.25867,13.18 3.23498,26.72534 2.32031,40 -3.37066,48.95334 -27.58692,98.40516 -66.54687,128.42382 -6.92935,5.34 -14.92468,8.09093 -22.66602,11.9336 -22.84533,11.34266 -46.44666,19.52541 -72,22.08008 -77.38533,7.73866 -157.73577,-32.40014 -189.75977,-105.10547 -7.896,-17.92534 -9.03865,-38.13203 -10.36132,-57.33203 -0.848,-12.32266 -2.30714,-24.94732 -0.98047,-37.33399 5.84,-54.55866 38.4807,-108.77112 83.76758,-139.20312 24.86133,-16.70667 56.24731,-22.306 85.33398,-25.75 2.77675,-0.3285 5.54625,-0.48708 8.30859,-0.51563 z m 228.58203,28.41602 c 5.19288,0.0944 10.33627,1.4502 15.08985,4.4707 12.34933,7.84667 17.47885,21.81335 0.0195,25.91602 -2.852,-5.492 -6.9954,-10.92013 -13.33398,-12.55079 -10.48136,-2.696 -22.16291,8.40902 -24.87891,17.76368 -1.884,6.48667 2.53755,11.76646 4.87891,17.45312 -3.32534,2.19067 -7.65103,5.84008 -11.875,5.71875 -8.34534,-0.24 -10.99293,-15.48808 -10.54493,-21.71875 1.02534,-14.24533 8.39856,-25.40487 21.08789,-32.01953 6.12151,-3.19125 12.88009,-5.15465 19.55664,-5.0332 z m -443.96093,1.11523 c 15.54346,0.32686 27.41873,15.11631 25.49023,30.60352 -0.80667,6.48 -6.81681,12.39463 -6.77148,18.64257 0.0707,9.70667 16.61843,7.55332 9.89843,19.94532 -1.00667,1.856 -2.35137,3.81564 -4.49804,4.43164 -6.836,1.96 -19.36483,-8.32142 -25.04883,-11.58008 -7.50267,-4.30134 -15.02202,-8.50616 -22.66602,-12.54883 -3.59199,-1.9 -8.59602,-3.61878 -10.88672,-7.18945 -3.07066,-4.78666 0.81698,-10.06986 2.93165,-14.36719 5.75333,-11.68934 12.34109,-25.07922 26.62109,-27.56055 1.67525,-0.291 3.32174,-0.41076 4.92969,-0.37695 z M 220,298.70117 c -1.25719,0.0628 -2.58169,0.34113 -3.96094,0.875 -16.31067,6.31467 -5.54812,29.2068 9.03321,23.32813 12.89171,-5.19705 7.08058,-24.80979 -5.07227,-24.20313 z m 480.73047,46.66797 c 1.52503,0.0301 3.02003,0.26581 4.44336,0.86914 6.53334,2.76933 11.41623,19.38706 8.10156,25.53906 -2.35333,4.36933 -7.8797,6.76846 -11.95703,9.20313 -7.504,4.48267 -15.07269,8.89722 -22.66602,13.22656 -8.45333,4.82 -17.01596,11.84765 -26.66796,13.70899 -1,-4.324 -4.09455,-10.11088 -2.94922,-14.54688 1.716,-6.648 8.10484,-8.1378 5.46484,-16.11914 -1.02934,-3.11066 -2.7268,-6.3695 -5.4668,-8.29883 -5.13467,-3.61734 -15.88047,-5.46885 -12.11914,-15.27929 2.024,-5.28 16.96095,-4.8103 21.73828,-5.37696 10.51734,-1.244 21.41467,-1.09131 32,-1.83398 3.22025,-0.2255 6.72305,-1.15793 10.07813,-1.0918 z m -339.81055,6.45508 c -2.51404,-0.0469 -5.06431,0.21137 -7.60156,0.79687 -10.944,2.52667 -19.87684,10.95294 -22.32617,21.96094 -1.49467,6.71334 -0.65899,15.80595 7.67969,17.00195 13.77199,1.97733 10.8577,-20.98439 23.20703,-18.03906 10.31333,2.46 6.89995,21.94436 20.75195,18.70703 10.83733,-2.53333 8.8015,-16.97727 4.79883,-24.33593 -5.41125,-9.94717 -15.61559,-15.88843 -26.50977,-16.0918 z m -182.0957,0.70898 c 5.91828,-0.0305 13.62673,3.14219 18.49414,4.11719 10.69733,2.14267 27.27617,2.95423 35.71484,10.49023 12.136,10.83867 7.20058,40.239 -5.10742,49.23633 -12.76933,9.336 -34.13476,0.48966 -47.9414,-1.90234 -4.68533,-0.812 -14.54912,-0.95919 -17.17579,-5.64453 -2.37867,-4.24266 0.96711,-11.49136 2.50977,-15.58203 8.004,1.65067 16.03467,3.34511 24,5.17578 7.08267,1.628 18.2085,5.76977 25.3125,3.14844 8.652,-3.192 11.39442,-14.95538 3.84375,-20.72071 -7.52933,-5.748 -22.61561,-7.19222 -31.82227,-8.82422 -4.048,-0.71734 -9.39681,-0.85459 -12.91015,-3.19726 -4.28266,-2.856 -3.81988,-13.7906 1.32812,-15.69727 1.11825,-0.4145 2.38815,-0.59256 3.75391,-0.59961 z m 346.11328,1.49219 c -0.76081,-0.0233 -1.52291,-0.0171 -2.28516,0.0195 -12.87334,0.61867 -24.20943,9.43776 -27.77343,21.8711 -1.704,5.94133 -1.98941,13.25825 4.05859,16.90625 15.38133,9.27733 13.52145,-17.08399 25.05078,-17.08399 12.01067,0 7.39222,19.90389 21.32422,18.58789 11.25467,-1.06266 10.0128,-14.90082 6.7168,-22.41015 -4.6325,-10.5575 -15.67964,-17.54126 -27.0918,-17.89063 z m -79.0293,1.37695 c -0.99651,-0.0117 -2.07737,0.1436 -3.25,0.4961 -12.28266,3.69066 -6.45265,18.10226 -4.47265,26.68359 5.95199,25.79867 11.95548,51.85133 19.13281,77.33399 -11.82666,0 -27.24654,-2.64188 -38.64648,0.57812 -6.32,1.784 -9.9246,9.2161 -6.44727,15.13477 3.47867,5.92267 11.14975,5.6098 17.09375,5.61914 13.59599,0.0227 29.29144,2.16792 42.66211,-0.30274 6.00666,-1.11067 9.29987,-5.6866 8.89453,-11.69726 -0.74933,-11.096 -5.03723,-22.57869 -7.72656,-33.33203 -4.77067,-19.08666 -9.22667,-38.24465 -14,-57.33399 -1.79921,-7.20045 -3.60723,-23.06651 -13.24024,-23.17969 z m 239.30664,7.22071 c -0.40356,-0.004 -0.81375,0.002 -1.23242,0.0156 -3.768,0.12267 -9.59037,0.27232 -12.73437,2.62695 -3.53067,2.64534 -2.60663,8.48207 1.10937,10.55274 6.8,3.79066 18.19427,-6.48901 20.96094,-11.90234 -2.78017,-0.82134 -5.27856,-1.267 -8.10352,-1.29297 z m 27.51368,53.65234 c 2.44979,-0.022 4.83112,0.10036 7.07812,0.44336 5.976,0.91333 7.87921,13.04123 2.42188,15.72656 -2.96267,1.45733 -7.05081,0.7025 -10.24414,0.92383 -8.88266,0.612 -17.78736,0.7187 -26.66602,1.33203 -3.54133,0.244 -8.57217,0.46183 -11.57617,2.56445 -8.92533,6.248 3.98215,23.1381 -11.08985,23.7461 -1.21733,0.048 -2.61473,0.0608 -3.80273,-0.25391 -3.68267,-0.97733 -4.01988,-4.20229 -4.17188,-7.51562 -0.34534,-7.564 -1.39742,-15.08416 -1.35742,-22.66016 0.0147,-2.944 -0.47989,-7.22487 2.13477,-9.29687 3.37334,-2.672 11.05326,-1.59468 15.19726,-2.13868 6.656,-0.87334 13.33734,-0.15635 20,-0.79101 6.76701,-0.644 14.7268,-2.01414 22.07618,-2.08008 z m -499.58985,17.1582 c 1.80884,0.0402 3.65317,0.32261 5.51367,0.88086 10.68934,3.20799 15.70519,12.2696 15.97852,22.9336 0.21334,8.26666 -0.51976,15.30665 -10.62109,14.58398 -8.56133,-0.61333 -5.20499,-7.35384 -6.34766,-13.22851 -0.65733,-3.384 -3.39308,-7.43427 -7.34375,-5.96094 -5.48933,2.048 -8.63911,9.70486 -12.28711,13.88086 -7.05333,8.07734 -20.88914,12.57931 -29.86914,4.83398 -5.96933,-5.14934 -6.8578,-13.39406 -6.8418,-20.77539 0.005,-2.94 -0.4759,-7.22887 2.13477,-9.29687 3.024,-2.396 8.92512,-1.36914 12.5293,-1.36914 0,4.25467 -1.40476,15.72265 5.39257,15.72265 5.28533,0 9.03197,-8.17112 11.80664,-11.70312 4.94325,-6.29091 12.11677,-10.67595 19.95508,-10.50196 z m 109.03321,26.74414 c -1.12672,0.0415 -2.2652,0.27609 -3.38086,0.73243 -10.86666,4.444 -4.52672,16.32453 -0.38672,23.00586 10.552,17.028 25.08139,31.18225 41.58008,42.40625 41.52933,28.252 98.32664,32.44908 144,11.84375 23.1933,-10.46267 43.29837,-26.97066 58.0957,-47.58399 3.11466,-4.34 7.25764,-9.25801 8.18164,-14.66601 1.18266,-6.92933 -4.02814,-14.32127 -11.60547,-12.69727 -5.80133,1.24267 -8.60006,6.90195 -11.66406,11.36328 -4.748,6.90933 -10.17392,13.79366 -16.39258,19.43359 -24.556,22.26802 -59.04792,39.59852 -93.28125,36.33985 -32.35734,-3.07866 -64.05812,-15.29397 -86.43945,-39.7793 -7.44134,-8.14 -12.37174,-18.33475 -19.70508,-26.35742 -2.335,-2.55499 -5.62183,-4.16539 -9.00195,-4.04102 z m 458.64062,8.35938 c -0.12879,0.51371 -0.22352,1.0296 -0.23438,1.56445 -0.1458,1.96958 -0.20045,3.94125 -0.22265,5.91602 0.006,0.42276 0.0519,0.84191 0.10742,1.25976 z m -2.22266,29.73242 c -0.0235,0.10417 -0.0472,0.20825 -0.0703,0.3125 h 0.13281 z m -135.04882,41.62109 c 3.78515,-0.0263 8.07633,3.4307 11.11132,5.15821 6.576,3.74 13.41467,6.94201 20,10.66601 3.53334,1.99867 7.72665,5.22796 11.94532,5.39063 10.69866,0.412 8.30169,-19.67354 20.06836,-15.54688 1.29466,0.45467 2.65514,1.25811 3.7871,2.02344 8.7587,5.924 -4.29894,21.78536 -7.98828,28.33203 -1.82,3.232 -3.65445,8.21933 -7.95312,8.61133 -5.16267,0.46933 -11.43938,-4.71998 -15.85938,-6.94531 -12.69066,-6.392 -30.27095,-12.55958 -40.90429,-21.99024 -4.60533,-4.084 -1.14769,-14.7872 5.04297,-15.64453 0.24733,-0.0342 0.49765,-0.0529 0.75,-0.0547 z m 120.44336,8.0254 -0.2168,0.81445 c 0.0184,-10e-4 0.0363,-0.006 0.0547,-0.008 z m -517.86329,5.07812 c 6.81003,-0.0486 13.63698,2.37421 18.28907,7.35938 7.4,7.928 7.57418,17.38917 7.57422,27.5625 h -13.33204 c -0.012,-4.356 0.43579,-9.34163 -2.32422,-13.04297 -3.79732,-5.092 -11.47466,-5.16707 -14,1.18359 -1.83197,4.60667 0.64401,9.99472 1.63868,14.52539 2.668,12.14533 5.05603,24.16689 -6.66797,32.46289 -21.83333,15.448 -52.99367,-15.20239 -48.875,-37.78906 1.464,-8.02133 10.41811,-9.9535 15.52344,-3.07617 1.748,2.35467 1.23947,5.66696 1.49414,8.40429 0.62533,6.712 7.96359,22.35788 16.90625,16.28321 5.56534,-3.78133 4.03945,-10.86916 2.57812,-16.28516 -2.10933,-7.81734 -4.1747,-17.68937 -0.33203,-25.33203 4.04325,-8.0445 12.77159,-12.19334 21.52734,-12.25586 z m 379.5625,15.22266 c 4.4531,-0.10286 9.241,2.37939 12.96875,4.17773 11.704,5.64666 23.04202,12.04409 34.66602,17.85742 4.08133,2.04134 14.08033,5.06269 13.09766,11.05469 -1.84399,11.24933 -11.46312,7.22152 -18.42579,8.99219 -3.92267,0.99733 -7.20069,4.87582 -9.08203,8.28515 -3.87066,7.01333 4.98828,19.94794 -7.15039,23.33594 -6.84,1.90933 -14.56332,-12.2572 -17.97265,-16.67187 -6.42667,-8.31733 -12.53672,-16.8707 -18.77539,-25.33203 -2.86533,-3.888 -6.94285,-8.12733 -6.57618,-13.33399 0.33067,-4.684 4.07253,-8.62261 7.00586,-11.97461 2.05734,-2.35067 4.18843,-4.80852 7.23243,-5.86719 0.975,-0.33925 1.98408,-0.4997 3.01171,-0.52343 z m -334.23047,12.27148 c 3.91042,0.002 7.85923,3.13602 11.19922,4.75977 l -16,22.66797 c 3.55334,0.692 7.42816,1.15543 10.66016,2.88476 11.956,6.396 9.05683,18.28125 3.07812,27.78125 -2.78532,4.42666 -13.18569,16.89981 -4.20703,20.50781 7.32534,2.944 13.02026,-5.01112 16.79493,-9.84179 5.89333,-7.54 13.4072,-13.56166 23.00586,-15.375 11.72,-2.21466 26.708,1.70551 32.77734,12.71484 3.14666,5.708 1.1797,17.49308 8.5957,19.70508 5.144,1.53467 8.27434,-3.94213 10.26367,-7.7168 3.82934,-7.264 6.97135,-12.56272 16.16602,-9.16406 2.37066,0.87734 2.90924,1.82528 4.19727,3.83594 7.24266,-1.49333 14.09337,-3.16016 21.33203,-0.38282 17.60133,6.752 13.03702,30.60396 4.81836,43.0293 -6.40934,9.69066 -17.41641,14.25362 -28.81641,13.12695 -4.51734,-0.44533 -11.40214,-3.96037 -15.7168,-2.12304 -8.58267,3.65334 -6.99346,18.54862 -14.46679,23.64062 -4.368,2.976 -19.3079,0.19617 -17.86524,-6.70117 1.26,-6.02533 6.12842,-11.86919 8.95508,-17.25586 4.24934,-8.09866 7.62308,-16.87531 11.09375,-25.33398 -3.42667,-0.30133 -7.32069,-1.42191 -10.66602,-0.25391 -5.98,2.08534 -9.97333,7.86992 -16,10.16992 -14.90533,5.688 -35.97531,-0.8207 -41.33398,-16.58203 -15.88533,2.94933 -40.71718,-2.58 -35.64648,-24 1.42266,-6.008 15.73915,-20.09265 8.53515,-25.19531 -3.73866,-2.64667 -8.33386,-0.43202 -11.53515,1.94531 -7.08266,5.256 -11.09332,15.21722 -18.80665,19.44922 -4.93334,2.70666 -15.24232,-2.62298 -15.98632,-8.32031 -0.79333,-6.084 12.19932,-15.92158 16.11132,-19.87891 9.068,-9.17334 17.69738,-18.684 26.60938,-28 3.28134,-3.43067 6.90692,-9.47345 12.07227,-10.05078 0.26015,-0.0291 0.52055,-0.0431 0.78124,-0.043 z m 337.86524,7.42774 c 1.17467,6.06933 7.19556,19.15039 14.71289,19.15039 4.25467,0 8.67386,-5.19349 6.50586,-9.29883 -1.972,-3.73066 -8.25748,-5.84103 -11.88281,-7.45703 -3.132,-1.39467 -5.95461,-2.04786 -9.33594,-2.39453 z m -34.6875,13.10937 c 4.53734,-0.23066 10.26206,6.1254 8.91406,10.66406 -0.972,3.272 -4.76607,5.56535 -6.6914,8.27735 -5.004,7.04933 -3.21872,14.93287 2.25195,21.1582 4.50533,5.12534 12.34954,10.56069 19.54687,8.85938 4.39067,-1.03868 8.50702,-6.21305 13.20704,-3.73438 14.41331,7.6 -1.75169,18.85673 -10.54102,20.55273 -20.93733,4.04 -41.9743,-12.85734 -44.93164,-33.55468 -1.52,-10.63466 4.90681,-31.54532 18.24414,-32.22266 z m -49.68945,34.14453 c 11.4594,0.16725 22.97219,4.61586 29.83593,14.13086 15.74533,21.82934 5.07099,57.12989 -24.125,58.56055 -14.91867,0.73067 -29.03195,-3.54996 -37.02929,-17.2793 -13.03066,-22.37466 2.81462,-54.47001 29.02929,-55.38867 0.76209,-0.0267 1.52511,-0.0346 2.28907,-0.0234 z m -200.02149,14.06836 c -11.02264,0.30635 -23.98502,9.79533 -18.02344,21.28516 5.332,10.27733 19.00721,6.89391 22.42188,-2.60742 -6.09334,-6.53067 -1.8207,-11.30199 2.66602,-17.33399 -2.08052,-0.9955 -4.52077,-1.41444 -7.06446,-1.34375 z m 200.2832,2.66406 c -1.65742,0.0102 -3.40126,0.25818 -5.21874,0.77735 -23.84668,6.81067 -12.1187,45.96656 12,38.36523 20.49756,-6.45927 12.77671,-39.26296 -6.78126,-39.14258 z m -69.27734,1.80664 c 6.9,-0.27866 6.66772,6.30307 7.51172,11.53907 1.22134,7.58 3.0893,15.07197 4.16797,22.66797 0.672,4.74133 0.50842,10.29355 3.23242,14.46289 5.57467,8.536 16.16422,-2.3878 22.82422,2.9082 3.28134,2.608 4.46092,11.5727 0.54492,13.94336 -7.22534,4.37467 -23.15863,5.64017 -31.5293,5.71484 -8.25067,0.072 -7.95739,-10.89729 -9.02539,-17.02929 -2.08934,-12.00134 -4.07109,-24.01067 -6.23242,-36 -0.74267,-4.11333 -3.12667,-10.19088 -1.27734,-14.24414 1.496,-3.27869 6.61254,-3.8349 9.7832,-3.9629 z m -246.34375,4.39454 c 6.7357,-0.0135 16.06256,7.46691 21.07031,10.21875 29.22,16.056 61.83669,25.8531 90.66602,42.25976 -1.40934,3.70534 -3.22022,8.37398 -7.10156,10.19531 -7.08533,3.328 -21.26846,-6.72523 -27.56446,-9.86523 -17.91866,-8.936 -35.94865,-17.61574 -53.33398,-27.56641 -10.51333,-6.01866 -20.09535,-13.54435 -30.66602,-19.42968 1.34292,-4.25167 3.86801,-5.80639 6.92969,-5.8125 z m 182.40235,9.50976 c -14.87201,0.48534 -22.61469,25.21956 -4,25.35156 15.63067,0.11067 22.35329,-25.95022 4,-25.35156 z m -222.22657,7.54492 c -0.0172,0.002 -0.0336,0.008 -0.0508,0.01 0.0293,0.0757 0.0667,0.14819 0.0937,0.22461 0.01,0.009 0.0198,0.0179 0.0293,0.0273 0.0496,-0.15199 0.0575,-0.27649 -0.0723,-0.26172 z m 500.35938,5.29102 -0.49414,0.49414 c 0.15604,-0.15858 0.31231,-0.31684 0.47656,-0.4668 0.005,-0.01 0.0124,-0.0178 0.0176,-0.0273 z m -492.79883,8.79883 1.33398,1.33398 z m 18.66602,10.66797 8,6.66601 z m 441.33398,10.66601 -4,5.33399 z m -420.79102,7.48047 c -0.005,0.0227 -0.0102,0.0456 -0.0156,0.0684 0,0.008 -0.006,0.0304 -0.002,0.0234 0.006,-0.009 0.0101,-0.0185 0.0156,-0.0274 0.001,-0.02 -1.7e-4,-0.0465 0.002,-0.0644 z m 80.02344,37.89844 c 0.007,0.003 0.0143,0.005 0.0215,0.008 0.0235,0.003 0.0468,0.008 0.0703,0.0117 -0.0101,-0.004 -0.0125,-0.008 -0.0195,-0.01 -0.0236,-0.006 -0.0322,-0.005 -0.0723,-0.01 z m 68.76758,19.87304 v 0.082 l 0.32812,0.0332 c -0.10895,-0.0395 -0.21995,-0.074 -0.32812,-0.11524 z m 48.11133,2.74414 -3.63477,0.002 c 0.22506,0.0342 0.45084,0.0621 0.67578,0.0957 0.15839,0.0257 0.31671,0.0642 0.47657,0.0781 0.49885,0.0434 1.12507,-0.0454 1.5957,-0.082 0.48599,-0.0378 0.6983,-0.0729 0.88672,-0.0938 z"
       transform="translate(-18.812505,-8.5169274)" />
  </g>
</svg>
