<?xml version="1.0" encoding="UTF-8" standalone="no"?>
<svg
   xmlns:dc="http://purl.org/dc/elements/1.1/"
   xmlns:cc="http://creativecommons.org/ns#"
   xmlns:rdf="http://www.w3.org/1999/02/22-rdf-syntax-ns#"
   xmlns:svg="http://www.w3.org/2000/svg"
   xmlns="http://www.w3.org/2000/svg"
   xmlns:sodipodi="http://sodipodi.sourceforge.net/DTD/sodipodi-0.dtd"
   xmlns:inkscape="http://www.inkscape.org/namespaces/inkscape"
   width="400"
   height="400"
   viewBox="0 0 105.83333 105.83334"
   version="1.1"
   id="svg8"
   inkscape:version="1.0.1 (3bc2e813f5, 2020-09-07)"
   sodipodi:docname="swipe_up.svg">
  <defs
     id="defs2">
    <rect
       x="-270.39664"
       y="344.39264"
       width="35.4123"
       height="222.92"
       id="rect1561" />
    <rect
       x="38.556698"
       y="229.87064"
       width="145.50134"
       height="32.770355"
       id="rect1549" />
  </defs>
  <sodipodi:namedview
     id="base"
     pagecolor="#ffffff"
     bordercolor="#666666"
     borderopacity="1.0"
     inkscape:pageopacity="0.0"
     inkscape:pageshadow="2"
     inkscape:zoom="1.185969"
     inkscape:cx="79.426893"
     inkscape:cy="257.48507"
     inkscape:document-units="mm"
     inkscape:current-layer="layer1"
     inkscape:document-rotation="0"
     showgrid="false"
     units="px"
     inkscape:window-width="1530"
     inkscape:window-height="991"
     inkscape:window-x="26"
     inkscape:window-y="23"
     inkscape:window-maximized="0" />
  <metadata
     id="metadata5">
    <rdf:RDF>
      <cc:Work
         rdf:about="">
        <dc:format>image/svg+xml</dc:format>
        <dc:type
           rdf:resource="http://purl.org/dc/dcmitype/StillImage" />
        <dc:title></dc:title>
      </cc:Work>
    </rdf:RDF>
  </metadata>
  <g
     inkscape:label="Layer 1"
     inkscape:groupmode="layer"
     id="layer1">
    <path
       style="fill:#ffffff;stroke-width:0.15521;fill-opacity:1"
       d="M 46.321182,79.359504 C 44.499104,78.780179 42.464053,77.380538 40.802059,75.563626 37.754851,72.232351 35.08186,67.569389 30.424497,57.46017 27.824583,51.816836 26.508654,49.212174 25.209879,47.138685 c -1.34462,-2.146706 -1.692804,-3.278376 -1.593002,-5.177695 0.05855,-1.114086 0.164395,-1.608487 0.492921,-2.302244 1.182512,-2.497155 3.586231,-3.840646 6.541633,-3.656262 2.123491,0.132474 2.634784,0.45144 5.851656,3.650349 l 2.756022,2.740628 V 28.579177 c 0,-15.24276 -0.02487,-14.822466 0.97663,-16.496667 0.646136,-1.080085 1.646009,-1.963441 2.903628,-2.5652283 0.948209,-0.4537403 1.116183,-0.4827667 2.793788,-0.4827667 1.67761,0 1.845577,0.029026 2.793787,0.4827667 1.40604,0.6728113 2.326535,1.5459903 3.042525,2.8861213 l 0.604918,1.132201 0.0776,7.993346 c 0.05066,5.21178 0.131626,7.980182 0.232823,7.955527 0.08537,-0.02072 0.57428,-0.185047 1.086471,-0.364999 0.764405,-0.268549 1.195461,-0.316207 2.405758,-0.265971 1.292299,0.0536 1.60445,0.125585 2.526129,0.582264 1.193964,0.591573 2.648041,2.02035 3.117005,3.062749 l 0.28837,0.640979 0.487688,-0.283279 c 0.96526,-0.560692 2.246431,-0.818341 3.637531,-0.731563 1.087492,0.06781 1.491418,0.174243 2.438331,0.642231 1.270287,0.627815 2.456819,1.788067 3.021558,2.954665 l 0.339116,0.700538 0.751966,-0.381042 c 3.181698,-1.612293 7.337023,-0.143229 8.894443,3.14453 l 0.495606,1.046241 0.04697,10.554299 c 0.0324,7.258109 -0.0084,10.937509 -0.128415,11.781299 -0.940096,6.576807 -5.468236,12.375692 -12.619104,16.16043 l -1.605607,0.849812 -10.463295,-0.01084 c -8.013228,-0.0084 -10.608669,-0.05661 -11.084133,-0.207774 z m 22.441108,-3.98337 c 5.183211,-3.011899 8.389743,-6.867613 9.800899,-11.785153 0.324229,-1.129852 0.335756,-1.472112 0.391858,-11.640792 0.04107,-7.442434 0.0072,-10.647834 -0.116227,-11.067622 -0.259672,-0.88167 -1.215486,-1.753126 -2.253899,-2.054989 -1.134416,-0.329794 -2.111416,-0.11719 -3.014681,0.655962 -0.734791,0.628934 -1.027296,1.126877 -1.172139,1.995322 -0.163608,0.980926 -0.371551,1.39156 -0.846946,1.67237 -0.549335,0.324506 -0.975856,0.331853 -1.565454,0.02686 -0.778752,-0.402697 -0.9258,-0.910515 -0.929594,-3.210266 -0.0036,-2.380543 -0.196525,-3.013995 -1.15712,-3.805803 -1.166008,-0.961113 -2.691631,-1.037208 -4.011623,-0.200102 -0.813589,0.515973 -1.301654,1.336952 -1.453541,2.445076 -0.138888,1.013361 -0.719917,1.591927 -1.598724,1.591927 -1.444409,0 -1.709052,-0.513973 -1.709052,-3.319218 0,-2.309543 -0.09723,-2.721237 -0.824372,-3.490198 -1.438476,-1.521239 -3.806033,-1.452322 -5.101683,0.148493 -0.291975,0.360735 -0.516265,0.908227 -0.665177,1.623651 -0.272282,1.308166 -0.705845,1.777841 -1.641129,1.777841 -0.454337,0 -0.73891,-0.115383 -1.116609,-0.452801 L 49.27019,35.833879 49.19258,25.059317 49.11498,14.28473 48.668183,13.640162 c -0.292156,-0.421474 -0.735619,-0.785883 -1.28127,-1.052842 -1.655389,-0.809911 -3.512593,-0.243329 -4.402745,1.34313 l -0.388027,0.691565 -0.04159,16.316208 -0.04159,16.316221 -0.372037,0.401432 c -0.431783,0.465905 -0.996718,0.643846 -1.601367,0.50441 -0.287239,-0.06624 -1.797328,-1.49237 -4.617508,-4.360798 -2.48269,-2.525158 -4.378575,-4.330134 -4.651689,-4.428656 -0.683644,-0.24658 -1.802825,-0.211423 -2.496682,0.07841 -1.337188,0.558585 -2.041239,1.769121 -1.888677,3.24735 0.09419,0.912576 0.391283,1.575354 1.417244,3.161693 0.87801,1.357571 2.858656,5.322755 5.137566,10.285244 5.86503,12.771475 9.543743,18.27865 13.226316,19.800299 l 0.896705,0.370527 9.855851,-0.03686 9.855862,-0.03686 z m -38.852161,-54.144723 -0.506882,-0.452753 -0.07761,-6.5446 -0.0776,-6.5446004 -1.192432,1.2455725 c -0.896106,0.9360372 -1.32535,1.2705159 -1.727263,1.3459129 -1.10262,0.206858 -2.102698,-0.7977945 -1.895199,-1.9038714 0.07893,-0.420691 0.572978,-1.0335348 2.205799,-2.7361235 3.637016,-3.7924459 3.4912,-3.6685113 4.316394,-3.6685113 0.665934,0 0.793889,0.068772 1.661209,0.8924613 0.516831,0.4908483 1.838696,1.8492989 2.937476,3.0187763 1.77544,1.8896829 1.997775,2.1868368 1.997775,2.6700853 0,0.7787884 -0.278421,1.2838609 -0.859816,1.5597443 -0.966273,0.458534 -1.260816,0.328024 -2.904039,-1.2866306 L 32.585058,7.6449062 v 6.4865958 c 0,4.152085 -0.05755,6.594065 -0.159809,6.785206 -0.0879,0.164235 -0.363805,0.404107 -0.613137,0.533027 -0.70685,0.365529 -1.328172,0.294203 -1.901983,-0.218324 z"
       id="path1545" />
    <text
       xml:space="preserve"
       id="text1547"
       style="font-style:normal;font-weight:normal;font-size:25.4px;line-height:1.05;font-family:sans-serif;white-space:pre;shape-inside:url(#rect1549);fill:#ffffff;fill-opacity:1;stroke:none;"
       transform="matrix(0.58662211,0,0,0.58662211,-1.8113954,-42.734997)"><tspan
         x="38.556641"
         y="249.80414"><tspan
           style="font-style:italic;font-variant:normal;font-weight:600;font-stretch:normal;font-size:25.4px;font-family:MadeynSans;-inkscape-font-specification:'MadeynSans Semi-Bold Italic';fill:#ffffff;fill-opacity:1">SWIPE UP</tspan></tspan></text>
    <text
       xml:space="preserve"
       id="text1559"
       style="font-style:normal;font-weight:normal;font-size:10.5833px;line-height:1.25;font-family:sans-serif;white-space:pre;shape-inside:url(#rect1561);fill:#000000;fill-opacity:1;stroke:none;"
       transform="matrix(0.58662211,0,0,0.58662211,-2.5283566,-46.33857)" />
  </g>
</svg>
